<?xml version="1.0" encoding="iso-8859-1"?>
<!-- Generator: Adobe Illustrator 16.0.0, SVG Export Plug-In . SVG Version: 6.00 Build 0)  -->
<!DOCTYPE svg PUBLIC "-//W3C//DTD SVG 1.1//EN" "http://www.w3.org/Graphics/SVG/1.1/DTD/svg11.dtd">
<svg version="1.1" id="Capa_1" xmlns="http://www.w3.org/2000/svg" xmlns:xlink="http://www.w3.org/1999/xlink" x="0px" y="0px"
	 width="45.75px" height="45.75px" viewBox="0 0 45.75 45.75" style="enable-background:new 0 0 45.75 45.75;" xml:space="preserve"
	>
<g>
	<path d="M45.15,26.676l-4.178-3.135l-3.348-7.848V13.5c0-0.828-0.671-1.5-1.5-1.5h-7.823l-1.96-3.921
		C26.088,7.57,25.568,7.25,25,7.25H1.5C0.671,7.25,0,7.922,0,8.75v25c0,0.828,0.671,1.5,1.5,1.5h3.471
		c0.632,1.881,2.392,3.25,4.484,3.25c2.091,0,3.851-1.369,4.483-3.25h19.625c0.633,1.881,2.394,3.25,4.484,3.25
		c2.092,0,3.852-1.369,4.482-3.25h1.721c0.829,0,1.5-0.672,1.5-1.5v-5.875C45.751,27.402,45.527,26.959,45.15,26.676z M9.456,35.5
		c-0.966,0-1.75-0.783-1.75-1.75S8.489,32,9.456,32c0.967,0,1.75,0.783,1.75,1.75S10.422,35.5,9.456,35.5z M29.501,23.834
		c-0.274,0-0.5-0.225-0.5-0.5v-6.5c0-0.276,0.226-0.5,0.5-0.5h5.166h0.131c0.199,0,0.379,0.118,0.458,0.3l2.828,6.5
		c0.066,0.155,0.052,0.333-0.041,0.476c-0.057,0.084-0.139,0.14-0.229,0.179c-0.061,0.024-0.121,0.047-0.188,0.047L29.501,23.834
		L29.501,23.834z M38.039,35.5c-0.967,0-1.75-0.783-1.75-1.75S37.07,32,38.039,32c0.967,0,1.75,0.783,1.75,1.75
		S39.005,35.5,38.039,35.5z"/>
</g>
<g>
</g>
<g>
</g>
<g>
</g>
<g>
</g>
<g>
</g>
<g>
</g>
<g>
</g>
<g>
</g>
<g>
</g>
<g>
</g>
<g>
</g>
<g>
</g>
<g>
</g>
<g>
</g>
<g>
</g>
</svg>
