<?xml version="1.0" encoding="utf-8"?>
<!-- Generator: Adobe Illustrator 21.1.0, SVG Export Plug-In . SVG Version: 6.00 Build 0)  -->
<svg version="1.1" id="Layer_1" xmlns="http://www.w3.org/2000/svg" xmlns:xlink="http://www.w3.org/1999/xlink" x="0px" y="0px"
	 viewBox="0 0 193.6 148.5" style="enable-background:new 0 0 193.6 148.5;" xml:space="preserve">
<style type="text/css">
	.st0{fill:#FF6900;}
	.st1{fill:#FFFFFF;}
	.st2{fill:#575756;}
	.st3{fill:none;stroke:#EB6619;stroke-width:0.5;stroke-miterlimit:10;}
	.st4{fill:none;stroke:#EB6619;stroke-width:0.5;stroke-miterlimit:10;stroke-dasharray:2.012,2.012;}
	.st5{fill:#FF6B00;}
	.st6{fill:#0033A0;}
	.st7{fill:#EB6619;}
	.st8{fill:#00A651;}
	.st9{fill:#E5321B;}
	.st10{fill:#FABC00;}
	.st11{fill:#8B22A0;}
	.st12{fill:#00BFDE;}
	.st13{fill-rule:evenodd;clip-rule:evenodd;fill:#F1F2F2;}
	.st14{fill:none;stroke:#F6F4F4;stroke-width:1.1398;stroke-linecap:round;stroke-linejoin:round;}
	.st15{fill:none;stroke:#F6F4F4;stroke-width:1.1398;stroke-linecap:round;stroke-linejoin:round;stroke-dasharray:0,2.279;}
	.st16{fill:none;stroke:#F6F4F4;stroke-width:1.1398;stroke-linecap:round;stroke-linejoin:round;stroke-dasharray:0,2.2869;}
	.st17{fill:none;stroke:#F6F4F4;stroke-width:1.1398;stroke-linecap:round;stroke-linejoin:round;stroke-dasharray:0,2.2151;}
	.st18{fill:none;stroke:#F6F4F4;stroke-width:1.1398;stroke-linecap:round;stroke-linejoin:round;stroke-dasharray:0,2.1739;}
	.st19{fill:none;stroke:#F6F4F4;stroke-width:1.1398;stroke-linecap:round;stroke-linejoin:round;stroke-dasharray:0,2.3533;}
	.st20{fill:none;stroke:#F6F4F4;stroke-width:1.1398;stroke-linecap:round;stroke-linejoin:round;stroke-dasharray:0,2.2155;}
	.st21{fill:none;stroke:#F6F4F4;stroke-width:1.1398;stroke-linecap:round;stroke-linejoin:round;stroke-dasharray:0,2.1581;}
	.st22{fill:none;stroke:#F6F4F4;stroke-width:1.1398;stroke-linecap:round;stroke-linejoin:round;stroke-dasharray:0,2.2441;}
	.st23{fill:none;stroke:#F6F4F4;stroke-width:1.1398;stroke-linecap:round;stroke-linejoin:round;stroke-dasharray:0,2.508;}
	.st24{fill:none;stroke:#F6F4F4;stroke-width:1.1398;stroke-linecap:round;stroke-linejoin:round;stroke-dasharray:0,2.2818;}
	.st25{fill:none;stroke:#F6F4F4;stroke-width:1.1398;stroke-linecap:round;stroke-linejoin:round;stroke-dasharray:0,1.6186;}
	.st26{fill:none;stroke:#F6F4F4;stroke-width:1.1398;stroke-linecap:round;stroke-linejoin:round;stroke-dasharray:0,2.2771;}
	.st27{fill:none;stroke:#F6F4F4;stroke-width:1.1398;stroke-linecap:round;stroke-linejoin:round;stroke-dasharray:0,2.2661;}
	.st28{fill:none;stroke:#F6F4F4;stroke-width:1.1398;stroke-linecap:round;stroke-linejoin:round;stroke-dasharray:0,2.2765;}
	.st29{fill:none;stroke:#F6F4F4;stroke-width:1.1398;stroke-linecap:round;stroke-linejoin:round;stroke-dasharray:0,2.2618;}
	.st30{fill:none;stroke:#F6F4F4;stroke-width:1.1398;stroke-linecap:round;stroke-linejoin:round;stroke-dasharray:0,2.2973;}
	.st31{fill:none;stroke:#F6F4F4;stroke-width:1.1398;stroke-linecap:round;stroke-linejoin:round;stroke-dasharray:0,2.76;}
	.st32{fill:none;stroke:#F6F4F4;stroke-width:1.1398;stroke-linecap:round;stroke-linejoin:round;stroke-dasharray:0,2.1639;}
	.st33{fill:none;stroke:#F6F4F4;stroke-width:1.1398;stroke-linecap:round;stroke-linejoin:round;stroke-dasharray:0,2.4142;}
	.st34{fill:none;stroke:#F6F4F4;stroke-width:1.1398;stroke-linecap:round;stroke-linejoin:round;stroke-dasharray:0,2.3527;}
	.st35{fill:none;stroke:#F6F4F4;stroke-width:1.1398;stroke-linecap:round;stroke-linejoin:round;stroke-dasharray:0,1.9962;}
	.st36{fill:none;stroke:#F6F4F4;stroke-width:1.1398;stroke-linecap:round;stroke-linejoin:round;stroke-dasharray:0,2.2776;}
	.st37{fill:none;stroke:#F6F4F4;stroke-width:1.1398;stroke-linecap:round;stroke-linejoin:round;stroke-dasharray:0,2.2706;}
	.st38{fill:none;stroke:#F6F4F4;stroke-width:1.1398;stroke-linecap:round;stroke-linejoin:round;stroke-dasharray:0,2.4278;}
	.st39{fill:none;stroke:#F6F4F4;stroke-width:1.1398;stroke-linecap:round;stroke-linejoin:round;stroke-dasharray:0,2.2828;}
	.st40{fill:none;stroke:#F6F4F4;stroke-width:1.1398;stroke-linecap:round;stroke-linejoin:round;stroke-dasharray:0,2.2648;}
	.st41{fill:none;stroke:#F6F4F4;stroke-width:1.1398;stroke-linecap:round;stroke-linejoin:round;stroke-dasharray:0,2.2852;}
	.st42{fill:none;stroke:#F6F4F4;stroke-width:1.1398;stroke-linecap:round;stroke-linejoin:round;stroke-dasharray:0,2.2979;}
	.st43{fill:none;stroke:#F6F4F4;stroke-width:1.1398;stroke-linecap:round;stroke-linejoin:round;stroke-dasharray:0,2.2811;}
	.st44{fill:none;stroke:#F6F4F4;stroke-width:1.1398;stroke-linecap:round;stroke-linejoin:round;stroke-dasharray:0,2.478;}
	.st45{fill:none;stroke:#F6F4F4;stroke-width:1.1398;stroke-linecap:round;stroke-linejoin:round;stroke-dasharray:0,2.0028;}
	.st46{fill:none;stroke:#F6F4F4;stroke-width:1.1398;stroke-linecap:round;stroke-linejoin:round;stroke-dasharray:0,2.2631;}
	.st47{fill:none;stroke:#F6F4F4;stroke-width:1.1398;stroke-linecap:round;stroke-linejoin:round;stroke-dasharray:0,2.2523;}
	.st48{fill:none;stroke:#F6F4F4;stroke-width:1.1398;stroke-linecap:round;stroke-linejoin:round;stroke-dasharray:0,2.7705;}
	.st49{fill:none;stroke:#F6F4F4;stroke-width:1.1398;stroke-linecap:round;stroke-linejoin:round;stroke-dasharray:0,2.2667;}
	.st50{fill:none;stroke:#F6F4F4;stroke-width:1.1398;stroke-linecap:round;stroke-linejoin:round;stroke-dasharray:0,2.2623;}
	.st51{fill:none;stroke:#F6F4F4;stroke-width:1.1398;stroke-linecap:round;stroke-linejoin:round;stroke-dasharray:0,2.2888;}
	.st52{fill:none;stroke:#F6F4F4;stroke-width:1.1398;stroke-linecap:round;stroke-linejoin:round;stroke-dasharray:0,2.2984;}
	.st53{fill:none;stroke:#F6F4F4;stroke-width:1.1398;stroke-linecap:round;stroke-linejoin:round;stroke-dasharray:0,2.3343;}
	.st54{fill:none;stroke:#F6F4F4;stroke-width:1.1398;stroke-linecap:round;stroke-linejoin:round;stroke-dasharray:0,2.1704;}
	.st55{fill:none;stroke:#F6F4F4;stroke-width:1.1398;stroke-linecap:round;stroke-linejoin:round;stroke-dasharray:0,2.5426;}
	.st56{fill:none;stroke:#F6F4F4;stroke-width:1.1398;stroke-linecap:round;stroke-linejoin:round;stroke-dasharray:0,2.1866;}
	.st57{fill:none;stroke:#F6F4F4;stroke-width:1.1398;stroke-linecap:round;stroke-linejoin:round;stroke-dasharray:0,2.2417;}
	.st58{fill:none;stroke:#F6F4F4;stroke-width:1.1398;stroke-linecap:round;stroke-linejoin:round;stroke-dasharray:0,2.4262;}
	.st59{fill:none;stroke:#F6F4F4;stroke-width:1.1398;stroke-linecap:round;stroke-linejoin:round;stroke-dasharray:0,2.3529;}
	.st60{fill:none;stroke:#F6F4F4;stroke-width:1.1398;stroke-linecap:round;stroke-linejoin:round;stroke-dasharray:0,2.2512;}
	.st61{fill:none;stroke:#F6F4F4;stroke-width:1.1398;stroke-linecap:round;stroke-linejoin:round;stroke-dasharray:0,2.4282;}
	.st62{fill:none;stroke:#F6F4F4;stroke-width:1.1398;stroke-linecap:round;stroke-linejoin:round;stroke-dasharray:0,1.9991;}
	.st63{fill:none;stroke:#F6F4F4;stroke-width:1.1398;stroke-linecap:round;stroke-linejoin:round;stroke-dasharray:0,2.303;}
	.st64{fill:none;stroke:#F6F4F4;stroke-width:1.1398;stroke-linecap:round;stroke-linejoin:round;stroke-dasharray:0,2.3218;}
	.st65{fill:none;stroke:#F6F4F4;stroke-width:1.1398;stroke-linecap:round;stroke-linejoin:round;stroke-dasharray:0,2.3506;}
	.st66{fill:none;stroke:#F6F4F4;stroke-width:1.1398;stroke-linecap:round;stroke-linejoin:round;stroke-dasharray:0,2.3682;}
	.st67{fill:none;stroke:#F6F4F4;stroke-width:1.1398;stroke-linecap:round;stroke-linejoin:round;stroke-dasharray:0,2.3206;}
	.st68{fill:none;stroke:#F6F4F4;stroke-width:1.1398;stroke-linecap:round;stroke-linejoin:round;stroke-dasharray:0,2.0787;}
	.st69{fill:none;stroke:#F6F4F4;stroke-width:1.1398;stroke-linecap:round;stroke-linejoin:round;stroke-dasharray:0,2.2715;}
	.st70{fill:none;stroke:#F6F4F4;stroke-width:1.1398;stroke-linecap:round;stroke-linejoin:round;stroke-dasharray:0,2.2679;}
	.st71{fill:none;stroke:#F6F4F4;stroke-width:1.1398;stroke-linecap:round;stroke-linejoin:round;stroke-dasharray:0,2.1558;}
	.st72{fill:none;stroke:#F6F4F4;stroke-width:1.1398;stroke-linecap:round;stroke-linejoin:round;stroke-dasharray:0,2.3176;}
	.st73{fill:none;stroke:#F6F4F4;stroke-width:1.1398;stroke-linecap:round;stroke-linejoin:round;stroke-dasharray:0,2.3001;}
	.st74{fill:none;stroke:#F6F4F4;stroke-width:1.1398;stroke-linecap:round;stroke-linejoin:round;stroke-dasharray:0,2.1816;}
	.st75{fill:none;stroke:#F6F4F4;stroke-width:1.1398;stroke-linecap:round;stroke-linejoin:round;stroke-dasharray:0,2.2845;}
	.st76{fill-rule:evenodd;clip-rule:evenodd;fill:#FF6B00;}
	.st77{opacity:0.6;}
	.st78{opacity:0.3;fill-rule:evenodd;clip-rule:evenodd;fill:none;stroke:#231F20;stroke-width:0.5362;stroke-miterlimit:2.4142;}
	.st79{opacity:0.6;clip-path:url(#SVGID_2_);}
	.st80{fill-rule:evenodd;clip-rule:evenodd;fill:none;stroke:#231F20;stroke-width:1.0725;stroke-miterlimit:2.4142;}
	.st81{fill:#98C7E1;}
	.st82{fill-rule:evenodd;clip-rule:evenodd;fill:#D1D3D4;}
	.st83{fill-rule:evenodd;clip-rule:evenodd;fill:url(#SVGID_3_);}
	.st84{fill-rule:evenodd;clip-rule:evenodd;fill:#58595B;}
	.st85{fill-rule:evenodd;clip-rule:evenodd;fill:url(#SVGID_4_);}
	.st86{fill-rule:evenodd;clip-rule:evenodd;fill:url(#SVGID_5_);}
	.st87{fill:none;}
	.st88{fill-rule:evenodd;clip-rule:evenodd;fill:#FFFFFF;}
	.st89{fill-rule:evenodd;clip-rule:evenodd;fill:#0033A0;}
	.st90{fill-rule:evenodd;clip-rule:evenodd;fill:#DB4733;}
	.st91{fill-rule:evenodd;clip-rule:evenodd;fill:#403F3F;}
	.st92{fill:#EC6603;}
	.st93{fill:#BB4E2E;}
	.st94{fill:#E83E0D;}
	.st95{fill:#ECB282;}
	.st96{fill:#C74D28;}
	.st97{fill:#DE006F;}
	.st98{fill:#DC030E;}
	.st99{fill:#C93038;}
	.st100{fill:#B52029;}
	.st101{fill:#FFBEC5;}
	.st102{fill:#181716;}
	.st103{fill:#D60046;}
	.st104{fill-rule:evenodd;clip-rule:evenodd;fill:url(#SVGID_6_);}
	.st105{fill-rule:evenodd;clip-rule:evenodd;fill:#EC1C24;}
	.st106{fill:#7CA05A;}
	.st107{fill:#5A5A5A;}
	.st108{fill:#231F20;}
	.st109{fill:#EC1C24;}
</style>
<g>
	<path class="st102" d="M138.6,33.7l54.9,0l-1.1,1.1c0,0-2.3,2.5-3.1,3.7c-0.9,1.3-2,3.4-3.2,6.4c-2.4,5.9-4.8,15.3-4.8,29.2
		c0,13.8,2.4,23.2,4.8,29c1.2,2.9,2.3,5,3.2,6.3c0.8,1.2,3.1,3.7,3.1,3.7l1.1,1.2l-54.8,0c-8.7,20.3-24.1,34.3-42,34.3
		c-18,0-33.3-14-42-34.3l-54.7,0l0.9-1.1c0,0,2-2.5,2.8-3.9c0.9-1.5,2-3.7,3.2-6.8c2.3-6.1,4.7-15.5,4.7-28.6
		c0-13-2.4-22.4-4.7-28.4c-1.2-3-2.3-5.2-3.2-6.7c-0.8-1.4-2.8-3.9-2.9-3.9L0,33.7l55,0C63.7,13.7,79,0,96.8,0
		C114.6,0,129.8,13.7,138.6,33.7z"/>
	<path class="st1" d="M96.8,0.7c17.5,0,32.7,13.6,41.4,33.7l53.8,0c0,0-2.3,2.5-3.2,3.8c-0.9,1.4-2.1,3.5-3.3,6.5
		c-2.4,6-4.8,15.5-4.8,29.4c0,13.9,2.4,23.4,4.8,29.3c1.2,3,2.4,5,3.3,6.4c0.8,1.3,3.2,3.8,3.2,3.8l-53.6,0
		c-8.6,20.4-23.9,34.3-41.6,34.3c-17.7,0-33-13.9-41.6-34.3l-53.7,0c0,0,2-2.5,2.9-4c0.9-1.5,2.1-3.8,3.3-6.9
		c2.4-6.2,4.8-15.7,4.8-28.8c0-13.1-2.4-22.5-4.8-28.7c-1.2-3.1-2.4-5.3-3.3-6.8c-0.9-1.4-2.9-4-2.9-4l54,0
		C64.1,14.3,79.2,0.7,96.8,0.7z"/>
	<path class="st103" d="M96.8,2.9c16.4,0,31.1,13,39.6,33l0.3,0.7l50.5,0c-2.8,4.2-8.7,15.6-8.7,37.4c0,21.8,5.8,33,8.6,37.2
		l-50.2,0l-0.3,0.7c-8.4,20.4-23.2,33.6-39.8,33.6c-16.6,0-31.4-13.2-39.8-33.6l-0.3-0.7l-50.8,0c2.7-4.3,8.7-16.4,8.7-37.4
		c0-20.9-6-32.9-8.7-37.2l51,0l0.3-0.7C65.6,15.9,80.3,2.9,96.8,2.9z"/>
	<g>
		<path class="st102" d="M36.4,78.5l-5.9,0l2-7.7c0.5-1.8,0.9-4.4,1-6.3h0.1c0.2,1.9,0.6,4.5,1,6.3L36.4,78.5z M29.8,82.6h7.7l2,7.3
			c0.2,0.8,0.3,0.9,0.8,0.9h5c0.4,0,0.9-0.1,0.9-0.4c0-0.2-0.1-0.5-0.2-0.7l-8.8-29C37,60.2,36.9,60,36.3,60h-4.7
			c-0.8,0-0.8,0.1-1,0.7l-8.9,29c0,0.2-0.2,0.5-0.2,0.8c0,0.3,0.3,0.4,0.9,0.4H27c0.7,0,0.8-0.1,0.9-0.9L29.8,82.6z"/>
		<path class="st102" d="M58.5,87.3c0-2.4-1.9-4.3-4.3-4.3c-2.3,0-4.3,1.9-4.3,4.3c0,2.4,2,4.3,4.3,4.3
			C56.5,91.6,58.5,89.7,58.5,87.3z"/>
		<path class="st102" d="M82.5,86.6c0-0.2,0.1-0.4,0.1-0.6c0-0.4-0.2-0.6-0.8-0.6l-10.8,0l0-24.5c0-0.8-0.2-0.9-0.9-0.9h-4.2
			c-0.8,0-0.9,0.1-0.9,0.9v28.9c0,0.8,0.2,0.9,0.9,0.9l14.9,0c0.7,0,0.8-0.1,1-0.8L82.5,86.6z"/>
		<path class="st102" d="M100.5,85.7c-0.1-0.2-0.3-0.4-0.5-0.4c-0.6,0-2.5,1.5-5.7,1.5c-4.2,0-5-3.1-5-5.6h12.1c0.9,0,1-0.3,1-1.1
			c0-5.4-1.4-12.3-9-12.3c-6,0-9.9,5-9.9,12.1c0,8.3,4.1,11.7,10.1,11.7c3.6,0,8.1-1.5,8.1-2.7c0-0.2,0-0.4-0.1-0.5L100.5,85.7z
			 M89.3,77c0.1-1.3,0.3-5,3.8-5c3.1,0,3.2,3.2,3.2,5L89.3,77z"/>
		<path class="st102" d="M129.2,85.5c-0.2-0.3-0.3-0.4-0.5-0.5c-0.9,0-2.5,1.7-5,1.7c-4.6,0-5.6-4.6-5.6-12.2
			c0-7.7,1.7-10.4,5.6-10.4c2.4,0,3.9,2.1,4.6,2.1c0.2,0,0.4-0.2,0.5-0.4l1.7-2.5c0.2-0.3,0.2-0.5,0.2-0.7c0-0.9-4-3.3-7.4-3.3
			c-7.8,0-11.7,6.1-11.7,16.4c0,10.8,3.8,15.9,11.7,15.9c4.4,0,7.5-2.1,7.5-2.9c0-0.2-0.1-0.4-0.2-0.7L129.2,85.5z"/>
		<path class="st102" d="M141.9,87.1c-3.2,0-3.7-3.2-3.7-7.4c0-4.2,0.6-7.4,3.7-7.4c3.1,0,3.7,3.2,3.7,7.4
			C145.6,83.9,145.1,87.1,141.9,87.1z M151.7,79.7c0-7.2-3.7-11.9-9.8-11.9c-6.1,0-9.8,4.6-9.8,11.9c0,7.2,3.7,11.9,9.8,11.9
			C148,91.6,151.7,86.9,151.7,79.7z"/>
		<path class="st102" d="M167.4,86.2c-0.8,0.5-1.5,0.9-3.3,0.9c-3,0-3.8-2.3-3.8-7.6c0-4.4,0.9-7,3.5-7c1.9,0,3,0.9,3.6,1.5
			L167.4,86.2z M173.1,76.7c0-5.5,1.3-6.5,1.3-7.1c0-0.3-0.3-0.4-0.5-0.5l-3.3-1.1c-0.2,0-0.4-0.1-0.7-0.1c-0.7,0-1.6,1.9-1.7,2.3
			c-0.9-0.8-2.3-2.3-5.8-2.3c-5,0-7.8,3.9-7.8,11.5c0,7.9,2.4,12.3,8.3,12.3c2.4,0,3.6-0.7,4.5-1.2v9c0,0.8,0.1,0.9,0.3,0.9
			c0.2,0,0.6-0.1,0.8-0.1l3.8-0.8c0.5-0.1,0.9-0.2,0.9-0.8V76.7z"/>
	</g>
	<g>
		<path class="st1" d="M33.4,75.5h-5.9l2-7.7c0.5-1.8,0.9-4.4,1-6.3h0.1c0.2,1.9,0.6,4.5,1,6.3L33.4,75.5z M26.7,79.5l7.7,0l2,7.3
			c0.2,0.8,0.3,0.9,0.8,0.9h5c0.5,0,0.9-0.1,0.9-0.4c0-0.2-0.1-0.5-0.2-0.7l-8.8-29c-0.2-0.5-0.3-0.7-0.9-0.7h-4.7
			c-0.8,0-0.8,0.1-1,0.7l-8.9,29c0,0.2-0.2,0.5-0.2,0.8c0,0.3,0.3,0.4,0.9,0.4H24c0.7,0,0.8-0.1,0.9-0.9L26.7,79.5z"/>
		<path class="st1" d="M55.4,84.3c0-2.4-1.9-4.3-4.3-4.3c-2.3,0-4.3,1.9-4.3,4.3c0,2.4,2,4.3,4.3,4.3C53.5,88.5,55.4,86.6,55.4,84.3
			z"/>
		<path class="st1" d="M79.5,83.5c0-0.2,0.1-0.5,0.1-0.6c0-0.4-0.2-0.6-0.8-0.6H67.9V57.9c0-0.8-0.2-0.9-0.9-0.9h-4.2
			c-0.8,0-0.9,0.1-0.9,0.9v28.9c0,0.8,0.2,0.9,0.9,0.9h14.9c0.7,0,0.8-0.1,1-0.8L79.5,83.5z"/>
		<path class="st1" d="M97.4,82.7c-0.1-0.2-0.3-0.4-0.5-0.4c-0.6,0-2.5,1.5-5.7,1.5c-4.2,0-5-3.1-5-5.6h12.1c0.9,0,1-0.3,1-1.1
			c0-5.4-1.4-12.3-9-12.3c-6,0-9.9,5-9.9,12.1c0,8.3,4.1,11.7,10.1,11.7c3.6,0,8.1-1.5,8.1-2.7c0-0.2,0-0.4-0.1-0.5L97.4,82.7z
			 M86.3,74c0.1-1.3,0.3-5,3.8-5c3.1,0,3.2,3.2,3.2,5H86.3z"/>
		<path class="st1" d="M126.1,82.5c-0.2-0.3-0.3-0.4-0.5-0.4c-0.9,0-2.5,1.7-5,1.7c-4.6,0-5.6-4.6-5.6-12.2c0-7.7,1.7-10.4,5.6-10.4
			c2.4,0,3.9,2.1,4.6,2.1c0.2,0,0.4-0.2,0.5-0.5l1.7-2.5c0.2-0.3,0.2-0.5,0.2-0.7c0-0.9-4-3.3-7.4-3.3c-7.8,0-11.7,6.1-11.7,16.4
			c0,10.8,3.8,15.9,11.7,15.9c4.4,0,7.5-2.1,7.5-2.9c0-0.2-0.1-0.4-0.2-0.7L126.1,82.5z"/>
		<path class="st1" d="M138.9,84c-3.2,0-3.7-3.2-3.7-7.4c0-4.2,0.6-7.4,3.7-7.4c3.1,0,3.7,3.2,3.7,7.4C142.6,80.9,142,84,138.9,84z
			 M148.6,76.7c0-7.2-3.7-11.9-9.8-11.9c-6.1,0-9.8,4.6-9.8,11.9c0,7.2,3.7,11.9,9.8,11.9C144.9,88.5,148.6,83.9,148.6,76.7z"/>
		<path class="st1" d="M164.4,83.2c-0.8,0.4-1.5,0.9-3.3,0.9c-3,0-3.8-2.3-3.8-7.6c0-4.4,0.9-7,3.5-7c1.9,0,3,0.9,3.6,1.5V83.2z
			 M170.1,73.6c0-5.5,1.3-6.5,1.3-7.1c0-0.3-0.3-0.5-0.5-0.5l-3.3-1.1c-0.2,0-0.5-0.1-0.7-0.1c-0.7,0-1.6,1.9-1.7,2.3
			c-0.9-0.8-2.3-2.3-5.8-2.3c-5,0-7.8,3.9-7.8,11.5c0,7.9,2.4,12.3,8.3,12.3c2.4,0,3.6-0.7,4.5-1.2l0,9c0,0.8,0.1,0.9,0.3,0.9
			c0.2,0,0.6-0.1,0.8-0.1l3.8-0.8c0.5-0.1,0.9-0.2,0.9-0.8L170.1,73.6z"/>
	</g>
	<g>
		<path class="st1" d="M83.1,131.5v-0.1c-0.2,0-0.3-0.1-0.3-0.4l0-6.7c0-0.2,0.1-0.3,0.3-0.4v-0.1h-1.9v0.1c0.2,0.1,0.2,0.1,0.2,0.3
			c0,0.3-0.4,0.5-0.6,0.5c-0.2,0-0.3-0.1-0.3-0.2h-0.1v1.7h0.1c0-0.4,0.5-0.4,0.9-0.4v5.3c0,0.3-0.2,0.3-0.3,0.4v0.1H83.1z"/>
		<path class="st1" d="M94.8,129.2c0-0.9-0.7-1.7-1.6-1.9c0.8-0.2,1.2-0.8,1.2-1.5c0-1.7-1.9-2.1-2.9-2.1c-1.6,0-3,0.8-3,2.1
			c0,0.8,0.5,1.4,1.3,1.5c-1.1,0.2-1.6,1.1-1.6,1.8c0,1.9,1.8,2.4,3.3,2.4C93.3,131.6,94.8,130.9,94.8,129.2z M93.1,125.8
			c0,0.8-0.8,1-1.6,1c-1.1,0-1.6-0.3-1.6-1c0-0.8,0.8-1,1.6-1C92.5,124.8,93.1,125.2,93.1,125.8z M93.4,129.2c0,1-1,1.2-1.9,1.2
			c-1.2,0-2-0.4-2-1.2c0-1,1-1.3,2-1.3C92.8,127.9,93.4,128.5,93.4,129.2z"/>
		<path class="st1" d="M104.4,127.6c0-2.4-1.3-4-3.4-4c-2.1,0-3.5,1.5-3.5,4c0,2.4,1.3,4,3.5,4C103.3,131.6,104.4,129.8,104.4,127.6
			z M103,127.6c0,1.7-0.7,2.8-2.1,2.8c-1.3,0-2.1-1.1-2.1-2.8c0-1.9,0.9-2.8,2.1-2.8C102.1,124.8,103,125.6,103,127.6z"/>
		<path class="st1" d="M113.6,124.8l0-1.3h-0.1c0,0.2-0.1,0.3-0.4,0.3h-5.4c-0.2,0-0.3-0.1-0.4-0.3h-0.1v1.7h0.1
			c0-0.2,0.1-0.2,0.4-0.2h4.3l-3.1,5.8c-0.3,0.5-0.4,0.5-0.5,0.5v0.1h2.2v-0.1c-0.4,0-0.2-0.3-0.1-0.5L113.6,124.8z"/>
	</g>
	<path class="st1" d="M127.5,105.6c0.7-1.4-0.4-1-1.3-0.5c-0.7,0.4-1.2,0.2-1.2,0.2c-3.4-0.8-5.1,2.1-5.7,3.4c0,0-1.3,0.1-1.1-0.9
		c0.1,0,0.8-1.3-0.2-1.6c-0.4-0.1-1.9,0.7-1.4,2.5c0,0,0,0.9-0.4,1.5c-0.4,0.6-1.7,2.2-3.2,1.2c-1.6-0.9,0.3-5.2,2.8-5
		c0.4-0.1,0.6-0.8-0.6-0.9c-4.6,0.2-4.9,5.2-5,5.2c-2.2,2.6-5.7,3.2-6.7,0.1c0-0.1,4.9-2.8,5.1-5.8c4.1-1.1,5.5-3.6,5.6-4.5
		c0.2-0.7,0.2-0.9,0.1-1.6c-0.7-2.8-9.5-2.8-13.3,6c-1.4,3.7-0.7,5.5-0.5,6.5c-4.7,2.5-5.3-0.6-5.3-0.6c3.5-3.1,3-4.7,1.5-5.4
		c-1.6-0.6-5.3,2.1-4.3,5.7c-0.9,0.6-2.6,1.4-3.5,0.3c-0.8-0.4-0.4-1.8-2-2.4c0.1-0.3,4.2-5.4,4.2-5.3c0.2-0.1,10.2-4.5,6.5-6.4
		c-2.2-0.5-5.4,3.5-7.1,5.3c-1.3,0.4-4.5,1.6-6.3,2.1c0-0.2,3.6-4.4,4.1-5c0.7-1,2.6-2.7,2.2-2.9c-1.5-0.7-11.1,6.9-11.5,7.3
		c-1,0.8-9.6,7.1-9.8,7.2l-1.2,0.7c-0.5,0.1-0.6-0.3-0.5-1.4c-0.3-0.1-1.1-0.6-1.4,0.8c0,1.2,1.3,1.9,3.7,0.2c0,0,7.5-5.3,8-5.4
		c0.5-0.1,1.5,0.3,1.4-0.7c0,0-0.1-0.5,0.2-0.8c0.8-0.7,1.7-1.5,3.6-3c5.6-4.3,5.4-3.4,5.4-3.4l-3.6,3.6c-1.1,1.1-2,2-3,3.2
		c-0.6,0.6-1.5,0.8-2.2,1.3c-0.6,0.5,0.2,0.9,0.4,1c0.2,0.2-1.1,1.6-1.2,1.8c0,0-2.2,2.5-2.2,3.2c-0.1,0.9,1.4,0.9,1.9,0.4
		c0.8-0.9,1.5-2,2.2-3c0.6-1,1.4-1.9,2-2.8l0-0.1c0.5-0.6,3.2-1.3,6.7-2.7c0,0-3,4-4.1,5c-1.3,0.3-3.2,1.5-4,2c-1.2,0.6-1,1.8-0.3,2
		c1.2,0,3.2-2.1,4.4-1.6c1.5,0.4,2,2.1,4.3,1.8c1.2-0.1,2.2-0.7,3.2-1.1c0.2,0.3,0.9,0.9,1.5,1.3c2.8,0.8,4.9-0.3,6.4-1
		c0.2,0.1,0.5,1.4,2.8,2.1c2.2,0.5,4.3-0.4,6.7-3c0.2,0.9,1.8,1.9,2.9,1.8c1.7-0.1,3.1-1.5,4.2-3.9c0.4,0.5,0.9,0.6,1.5,0.6
		c-1.6,4.7,2.3,3.8,2.3,3.8s-4.1,6.6-4.1,6.8c-0.5,0.8-0.3,0.8,0.2,0.5c0.7-0.5,2.2-1.9,3.3-2.8c1.8-1.4,3.8-2.5,3.8-2.5
		c-0.1-0.9-3.3,1.9-3,0.9C121.4,116.3,127.5,105.6,127.5,105.6z M94.5,99.5c1.4-1.2,2.1-1.2,2.1-1.2c1.3,0.1-3.8,3.2-4,3.1
		L94.5,99.5z M96.3,106.4c1.4,0.7-1.4,2.9-1.4,2.9C94,107.3,95.7,106.1,96.3,106.4z M108.7,99.1c2.4-1.5,4.2-1.1,4.6-0.6
		c1.1,1-0.6,5-4,5.3c0,0-0.2,0-0.6-0.5c-0.4-0.4-0.9-0.1-1.1-0.1c-0.6,0.7-0.1,1.4,0,1.8c0.2,0.2,0.8,1.9-4.3,5
		C103.1,109.9,101.6,103.6,108.7,99.1z M121,109.1c1.8-3.6,4.9-3.2,3.6-1.2l-2.7,4.3C120.7,113.5,119.9,111.3,121,109.1z"/>
	<g>
		<g>
			<g>
				<linearGradient id="SVGID_2_" gradientUnits="userSpaceOnUse" x1="66.6967" y1="32.0665" x2="126.3977" y2="32.0665">
					<stop  offset="0" style="stop-color:#997120"/>
					<stop  offset="0.1868" style="stop-color:#F7DC88"/>
					<stop  offset="0.4066" style="stop-color:#E1B24B"/>
					<stop  offset="0.6593" style="stop-color:#FAE598"/>
					<stop  offset="0.8462" style="stop-color:#F2D17E"/>
					<stop  offset="1" style="stop-color:#E1B24B"/>
				</linearGradient>
				<path style="fill-rule:evenodd;clip-rule:evenodd;fill:url(#SVGID_2_);" d="M92,30.5c-0.1-0.1-0.1-0.2-0.2-0.3l0,0.3
					C91.9,30.5,91.9,30.5,92,30.5z M90,27.7L90,27.7l0.1,0c1.9,0.6,3.1,4.8,3.4,6.1c0.2,0,0.6-0.1,1.1-0.1c0-0.4-0.1-1.5-0.9-4.2
					c-1-3.5-2.4-4.4-3.4-4.8c-0.2-0.1-0.5-0.1-0.8-0.1c-0.4,0-1.7,0.1-1.8,1.5c0,0.4,0.1,0.8,0.4,1.1C88.6,27.6,89.3,27.8,90,27.7z
					 M84.6,40.8c0.1,0,0.2,0,0.4-0.1c0.8-0.4,1.2-0.5,1.9-0.3c0.2,0,0.3,0.1,0.4,0.1c0.1,0,0.3,0,0.3-0.1c0-0.2-0.2-0.4-0.4-0.5
					c-0.2-0.1-0.5-0.1-0.8-0.1c-0.6,0-1.3,0.1-1.6,0.3c-0.3,0.2-0.4,0.4-0.4,0.6C84.4,40.8,84.5,40.8,84.6,40.8z M91.3,40
					c0-0.1,0-0.2,0.1-0.3c0.1-0.3-0.1-1-0.5-1.5c-0.5-0.6-1.2-0.8-2.2-0.5c-1.1,0.3-1.5,0.9-1.8,1.4c-0.1,0.1-0.1,0.2-0.2,0.3
					c0.1,0,0.2,0,0.3,0l0.3-0.2c0,0,0.5-0.2,1.2-0.2C89.3,38.9,90.3,39.1,91.3,40z M82.8,38.2c-0.1,0-0.2,0-0.2,0
					c-0.8,0-1.3,0.3-1.7,0.8c-0.4,0.6-0.4,1.4-0.3,1.7c0.1,0.1,0.1,0.2,0.1,0.3c1.6-2.1,3.6-1.6,3.6-1.6l0.5,0.2
					c0.1,0,0.2-0.1,0.3-0.1c-0.1-0.1-0.2-0.2-0.3-0.3C84.4,38.8,83.9,38.3,82.8,38.2z M85.4,39.3c0,0,0.1,0.1,0.1,0.1
					c0.2,0,0.5-0.1,0.7-0.1c0.1-0.6,0.2-1.4,0-2.6c-0.2-1.7-0.7-2.8-1.1-3.2c-0.3,0.4-0.5,1.7-0.3,3.3C84.9,38,85.2,38.8,85.4,39.3z
					 M96.3,14.6c-0.3,0-0.6-0.1-0.9-0.3L94.2,16c0.6-0.3,1.4-0.4,2.1-0.4c0.8,0,1.5,0.2,2.2,0.5l-1.2-1.8
					C97,14.4,96.7,14.6,96.3,14.6z M98.1,12.8c0,0.4-0.1,0.7-0.3,1l2.4,1.4c0.1-0.4,0.2-1.2,0.2-2.4c0-1.1-0.1-1.7-0.2-2l-2.3,1.1
					C98,12.2,98.1,12.5,98.1,12.8z M96.3,11c0.4,0,0.8,0.2,1.1,0.4l1.6-2.1c-0.4-0.1-1.4-0.3-2.6-0.3c-1.2,0-2.2,0.1-2.7,0.2
					l1.5,2.3C95.5,11.2,95.8,11,96.3,11z M91.7,22.1l0-0.9l0.4,0l0,0.8c0.1,0,0.2,0,0.3-0.1l0-0.8l0.4,0l0,0.7c0.1,0,0.2,0,0.3-0.1
					l0-0.7l0.4,0l0,0.7c0.1,0,0.2,0,0.3-0.1l0-0.7l0.4,0l0,0.6c0.1,0,0.2,0,0.3,0l0-0.6l0.4,0l0,0.6c0.1,0,0.2,0,0.3,0l0-0.6l0.4,0
					l0,0.6c0.1,0,0.2,0,0.3,0l0-0.7l0.4,0l0,0.6c0.1,0,0.2,0,0.3,0l0-0.7l0.4,0l0,0.7c0.1,0,0.2,0,0.3,0l0-0.8l0.4,0l0,0.8
					c0.1,0,0.2,0,0.3,0l0-0.9l0.4,0l0,1c0.1,0,0.2,0,0.3,0l0-1.1l0.4,0l0,1.2c0.1,0,0.2,0,0.3,0l-0.1-1.3l0.4,0l0.1,1.4
					c0.1,0,0.2,0,0.3,0.1l-0.1-1.5l0.4,0l0.1,1.6c0.1,0,0.2,0,0.3,0.1l-0.1-1.8l0.4,0l0.1,1.7c0-0.2,0.1-0.3,0.1-0.5
					c0-0.1,0-0.2,0-0.4c0-0.1,0-0.2,0-0.3c0-0.1,0-0.3,0-0.4c-0.1-0.3-0.2-0.6-0.2-0.6c-0.3-0.1-1.6-0.6-2.6-0.6l-0.1,0
					c-0.3,0-0.4-1.7-0.4-2.7c-0.2-0.1-0.5-0.2-0.8-0.3c-0.2,0-0.5-0.1-0.7-0.1c-0.6,0-1.1,0.1-1.7,0.3c0.1,0.7,0.2,2.7,0.2,2.8
					l-0.1,0.1l-0.1,0c0,0-0.1,0-0.1,0c-0.8,0-2.4,0.4-3,0.5c-0.1,0.4-0.2,0.8-0.2,1.2C91.4,21.3,91.5,21.7,91.7,22.1
					C91.7,22.1,91.7,22.1,91.7,22.1z M94.9,13.9c-0.2-0.3-0.4-0.7-0.4-1.1c0-0.3,0.1-0.6,0.2-0.8l-2.4-1.2c-0.1,0.2-0.2,0.8-0.1,2
					c0,1.3,0.2,2,0.2,2.4L94.9,13.9z M76,23.9c0.8,0,1.5-0.7,1.5-1.5c0-0.8-0.7-1.5-1.5-1.5c-0.8,0-1.5,0.7-1.5,1.5
					C74.6,23.2,75.2,23.9,76,23.9z M71.4,28.9c0.8,0,1.5-0.7,1.5-1.5c0-0.8-0.7-1.5-1.5-1.5c-0.8,0-1.5,0.7-1.5,1.5
					C70,28.3,70.6,28.9,71.4,28.9z M69.3,31.5c0.8,0,1.5-0.7,1.5-1.5c0-0.8-0.7-1.5-1.5-1.5c-0.8,0-1.5,0.7-1.5,1.5
					C67.8,30.9,68.5,31.5,69.3,31.5z M69.6,33.3c0-0.8-0.7-1.5-1.5-1.5c-0.8,0-1.5,0.7-1.5,1.5c0,0.8,0.7,1.5,1.5,1.5
					C69,34.7,69.6,34.1,69.6,33.3z M91.4,30l0.3,0c-0.4-0.8-0.9-1.5-1.5-1.8c-0.2,0-0.4-0.1-0.6-0.1c-0.4,0-0.8-0.1-1.1-0.2
					c-5.5-1.2-11.1-3.1-12-3.4l-6.6,8l2.8,5.2c0.2-0.2,0.7-0.6,1.4-0.9l-0.1-0.1l0.6-0.3l-0.1-0.1L74,36.5l-0.2-0.4l0.6-0.3
					l-0.1-0.2L73.7,36l-0.2-0.4l0.6-0.4l-0.1-0.2l-0.6,0.3L73.2,35l0.6-0.3l-0.1-0.3l-0.7,0.3l-0.2-0.4l0.7-0.4l-0.1-0.2l-0.7,0.3
					l-0.1-0.4l0.7-0.3l-0.1-0.2l-0.8,0.2L72.3,33l0.7-0.2l-0.1-0.2l-0.8-0.1l0-0.4l0.7,0.1l-0.7-0.4l0.2-0.4l0.8,0.4l0.1-0.1
					l-0.7-0.6l0.3-0.3l0.7,0.6l0.1-0.1l-0.8-0.7l0.3-0.3l0.8,0.7l0.2-0.2l-0.7-0.6l0.3-0.3l0.7,0.6l0.1-0.2l-0.7-0.5l0.3-0.3
					l0.7,0.5l0.2-0.2l-0.7-0.6l0.3-0.3l0.7,0.6l0.1-0.1l-0.7-0.6l0.3-0.3l0.7,0.6l0.2-0.2l-0.7-0.6l0.3-0.3l0.7,0.6l0.1-0.1
					l-0.6-0.6l0.3-0.3l0.6,0.5l0.1-0.1l-0.6-0.6l0.3-0.3l0.6,0.6l0.1-0.1L76.2,27l0.3-0.3l0.5,0.6l0-0.1l-0.3-0.9l0.4-0.1l0.2,0.7
					l0.1-0.6l0.4,0.1l-0.1,0.8c0.1,0,0.2,0.1,0.3,0.1l0.1-0.7l0.4,0.1l-0.1,0.7c0.1,0,0.2,0.1,0.3,0.1l0.1-0.7l0.4,0.1l-0.1,0.7
					c0.1,0,0.2,0.1,0.3,0.1V27h0.4v0.8c0.1,0,0.2,0.1,0.3,0.1l0-0.7l0.4,0l0,0.9c0.1,0,0.2,0.1,0.3,0.1l0-0.8l0.4,0l0,0.9
					c0.1,0,0.2,0.1,0.3,0.1l0-0.8l0.4,0l0,0.9c0.1,0,0.2,0.1,0.3,0.1l0-0.8l0.4,0l0,0.9c0.1,0,0.2,0.1,0.3,0.1l0-0.8l0.4,0l0,0.9
					c0.1,0,0.2,0,0.3,0.1l0-0.8l0.4,0l0,0.9c0.1,0,0.2,0.1,0.4,0.1l0.1-0.7l0.4,0l-0.1,0.8c0.1,0,0.2,0,0.3,0.1l0.1-0.8l0.4,0
					l-0.1,0.8c0.1,0,0.2,0,0.3,0.1l0.1-0.7l0.4,0l-0.1,0.8c0.1,0,0.2,0,0.3,0.1l0.1-0.7l0.4,0.1l-0.1,0.8c0.1,0,0.2,0,0.2,0l0-0.7
					l0.4,0l0,0.8c0.1,0,0.2,0,0.3,0.1l0-0.7l0.4,0l0,0.8c0.1,0,0.2,0,0.3,0.1l0-0.7l0.4,0l0,0.7c0.1,0,0.2,0,0.3,0.1l0-0.6l0.4,0
					l0,0.7c0.1,0,0.2,0,0.3,0l0-0.6l0.4,0l0,0.6c0.1,0,0.2,0,0.3,0l0-0.5l0.4,0l0,0.5c0.1,0,0.2,0,0.3,0L91.4,30z M71.2,36.2
					c0-0.8-0.7-1.5-1.5-1.5s-1.5,0.7-1.5,1.5c0,0.8,0.7,1.5,1.5,1.5S71.2,37,71.2,36.2z M71.4,37.7c-0.8,0-1.5,0.7-1.5,1.5
					c0,0.8,0.7,1.5,1.5,1.5c0.8,0,1.5-0.7,1.5-1.5C72.9,38.4,72.2,37.7,71.4,37.7z M80.2,42.1c0-0.4-0.2-1.1-0.5-2.2
					c-0.3-1-0.7-1.8-0.8-2.1l-1.8,1.8c0.2,0.1,0.4,0.3,0.6,0.6c0.4,0.6,0.5,1.1,0.4,1.5L80.2,42.1z M86,26.6c0.8,0,1.5-0.7,1.5-1.5
					c0-0.8-0.7-1.5-1.5-1.5c-0.8,0-1.5,0.7-1.5,1.5C84.5,26,85.2,26.6,86,26.6z M99,35l-0.9,1.4l0.7-0.3L99,35z M82.7,25.7
					c0.8,0,1.5-0.7,1.5-1.5c0-0.8-0.7-1.5-1.5-1.5c-0.8,0-1.5,0.7-1.5,1.5C81.2,25.1,81.8,25.7,82.7,25.7z M79.4,24.7
					c0.8,0,1.5-0.7,1.5-1.5c0-0.8-0.7-1.5-1.5-1.5c-0.8,0-1.5,0.7-1.5,1.5C77.9,24.1,78.6,24.7,79.4,24.7z M73.5,26.3
					c0.8,0,1.5-0.7,1.5-1.5c0-0.8-0.7-1.5-1.5-1.5c-0.8,0-1.5,0.7-1.5,1.5C72,25.7,72.7,26.3,73.5,26.3z M101,30.3l0,0.2
					c0.1,0,0.2,0,0.3,0l0-0.7C101.1,29.9,101.1,30.1,101,30.3z M109,39.6c0.7,0,1.9,0.2,2.9,1.8c0-0.1,0.1-0.2,0.2-0.3
					c0.2-0.3,0.3-1.1-0.1-1.7c-0.3-0.5-0.9-0.8-1.7-0.8c-1.2,0-1.6,0.4-2.1,0.8c-0.1,0.1-0.2,0.2-0.3,0.2c0.1,0,0.2,0.1,0.3,0.1
					l0.4-0.1C108.6,39.6,108.7,39.6,109,39.6z M119.3,26c0.8,0,1.5-0.7,1.5-1.5c0-0.8-0.7-1.5-1.5-1.5c-0.8,0-1.5,0.7-1.5,1.5
					C117.9,25.4,118.5,26,119.3,26z M107.3,39.4c0.3-0.5,0.6-1.3,0.8-2.5c0.3-1.7,0.1-2.9-0.2-3.4c-0.4,0.3-0.9,1.5-1.2,3.1
					c-0.2,1.1-0.1,2-0.1,2.5c0,0,0.1,0.1,0.1,0.1C106.9,39.3,107.1,39.4,107.3,39.4z M120,27.3c0,0.8,0.7,1.5,1.5,1.5
					c0.8,0,1.5-0.7,1.5-1.5s-0.7-1.5-1.5-1.5C120.6,25.9,120,26.5,120,27.3z M119.9,37.8l3.1-5.2l-6.5-8.4c-1,0.3-6.5,2.3-12,3.6
					c-0.4,0.3-0.9,0.4-1.5,0.3c-0.1,0-0.3,0.1-0.4,0.1c-0.5,0.3-1,0.9-1.4,1.6l0.4,0l0,0.7c0.1,0,0.2,0,0.3,0l0-0.7l0.4,0l0,0.6
					c0.1,0,0.2,0,0.3,0l0-0.8l0.4,0l0,0.7c0.1,0,0.2,0,0.3,0l0-0.8l0.4,0l0,0.8c0.1,0,0.2,0,0.3-0.1l0-0.9l0.4,0l0,0.8
					c0.1,0,0.2,0,0.3-0.1l0-0.8l0.4,0l0,0.7c0.1,0,0.2,0,0.3-0.1l0-0.8l0.4,0l0,0.8c0.1,0,0.2,0,0.3-0.1l0-0.8l0.4,0l0,0.7
					c0.1,0,0.2,0,0.3-0.1l0-0.9l0.4,0l0,0.8c0.1,0,0.2,0,0.3-0.1l0-0.9l0.4,0l0,0.8c0.1,0,0.2,0,0.3-0.1l0-0.8l0.4,0l0,0.7
					c0.1,0,0.2,0,0.3-0.1l0-0.9l0.4,0l0,0.7c0.1,0,0.2-0.1,0.3-0.1l0-0.8l0.4,0l0,0.7c0.1,0,0.2-0.1,0.3-0.1l0-0.9h0.4l0,0.8
					c0.1,0,0.2-0.1,0.3-0.1l0-0.9h0.4l0,0.8c0.1,0,0.2-0.1,0.3-0.1l0-0.9l0.4,0l0,0.7c0.1,0,0.2-0.1,0.3-0.1l0-0.8l0.4,0l0,0.7
					c0.1,0,0.2-0.1,0.3-0.1l0-0.8l0.4,0l0,0.7c0.1,0,0.2-0.1,0.3-0.1l0-0.8l0.4,0l0,0.7c0.1,0,0.2-0.1,0.3-0.1l-0.1-0.8l0.4,0
					l0.1,0.7c0.1,0,0.1,0,0.2-0.1l0-0.7l0.4,0l0,0.5l0.4-0.5l0.3,0.3l-0.5,0.5l0.1,0.1l0.4-0.4l0.3,0.3l-0.4,0.5l0.1,0.2l0.4-0.4
					l0.3,0.3l-0.5,0.4l0.2,0.2l0.5-0.4l0.3,0.3l-0.5,0.5l0.2,0.2l0.5-0.5l0.3,0.3l-0.5,0.5l0.2,0.2l0.4-0.5l0.3,0.3l-0.4,0.5
					l0.2,0.2l0.6-0.5l0.3,0.3l-0.6,0.5l0.2,0.3l0.6-0.5l0.3,0.3l-0.6,0.5l0.1,0.2l0.5-0.4l0.3,0.3l-0.5,0.4l0.2,0.2l0.5-0.4l0.3,0.3
					l-0.5,0.4l0.1,0.2l0.5-0.5l0.3,0.3l-0.5,0.5l0,0.1l0.6-0.1l0.1,0.4l-0.7,0.2l0,0.1l0.6,0.1l-0.1,0.4l-0.7-0.1l-0.1,0.2l0.6,0.2
					l-0.1,0.4l-0.7-0.3l-0.1,0.2l0.6,0.4l-0.2,0.4l-0.6-0.4l-0.2,0.3l0.6,0.4l-0.2,0.3l-0.6-0.4l-0.1,0.2l0.6,0.4l-0.2,0.3l-0.6-0.4
					l-0.1,0.2l0.6,0.4l-0.2,0.3l-0.6-0.4l-0.1,0.2l0.6,0.4l-0.2,0.2C119.3,37.2,119.7,37.6,119.9,37.8z M122,30.1
					c0,0.8,0.7,1.5,1.5,1.5c0.8,0,1.5-0.7,1.5-1.5c0-0.8-0.7-1.5-1.5-1.5C122.7,28.6,122,29.3,122,30.1z M116.8,23.7
					c0.8,0,1.5-0.7,1.5-1.5c0-0.8-0.7-1.5-1.5-1.5c-0.8,0-1.5,0.7-1.5,1.5C115.3,23.1,115.9,23.7,116.8,23.7z M105.9,39.3
					c0.1,0,0.2,0,0.3,0c-0.1-0.1-0.1-0.2-0.2-0.4c-0.3-0.5-0.5-1.1-1.7-1.5c-0.3-0.1-0.6-0.2-0.9-0.2c-0.7,0-1.1,0.3-1.3,0.6
					c-0.4,0.4-0.6,1-0.5,1.4c0,0.1,0,0.3,0,0.3c0.8-0.6,1.6-0.9,2.4-0.9c0.9,0,1.4,0.3,1.5,0.3L105.9,39.3z M115.6,39l-1.5-1.6
					c-0.2,0.5-0.7,1.6-0.9,2.2c-0.2,0.6-0.3,1.6-0.4,2.1l2.2-0.5c-0.1-0.2-0.2-0.6-0.1-1.1C114.9,39.6,115.2,39.2,115.6,39z
					 M105.8,40.4c0.3,0,0.5-0.1,0.8-0.1c0.4,0,0.7,0.1,1.1,0.3c0.7,0.4,0.7,0.2,0.7,0.1c0-0.2-0.1-0.4-0.2-0.6
					c-0.6-0.4-1.8-0.6-2.4-0.4c-0.4,0.1-0.5,0.3-0.5,0.5C105.2,40.4,105.4,40.5,105.8,40.4z M100.3,40.5c0.1-0.5,0.2-1.4,0.2-2.3
					c0-0.8-0.1-1.7-0.2-2.2L97.9,37c0.3,0.7,0.2,1.6,0,2.3L100.3,40.5z M96.4,36c0.6,0,1,0.2,1.3,0.5l1.4-2.4
					c-0.6-0.1-1.7-0.2-2.5-0.2c-0.8,0-2.1,0.1-2.7,0.2l1.4,2.3C95.5,36.3,95.9,36.1,96.4,36z M96.3,28.9c0.7,0,1.3-0.6,1.3-1.3
					c0-0.7-0.6-1.3-1.3-1.3c-0.7,0-1.3,0.6-1.3,1.3C94.9,28.3,95.5,28.9,96.3,28.9z M93.8,35l0.2,1.2l0.7,0.3L93.8,35z M98.4,23.8
					c0-1.1-0.9-2-2-2c-1.1,0-2,0.9-2,2s0.9,2,2,2C97.5,25.7,98.4,24.8,98.4,23.8z M96.3,29.3c-0.6,0-1,0.5-1,1c0,0.6,0.5,1,1,1
					c0.6,0,1.1-0.5,1.1-1C97.4,29.8,96.9,29.3,96.3,29.3z M99.1,29.4c-0.8,2.7-0.9,3.8-0.9,4.2c0.5,0,0.9,0.1,1.1,0.1
					c0.3-1.3,1.5-5.5,3.4-6.1l0,0l0.1,0c0.7,0.1,1.5-0.1,1.9-0.5c0.3-0.3,0.4-0.7,0.4-1.1c0-0.2,0-0.3-0.1-0.4c0,0,0,0,0-0.1
					c-0.3-0.9-1.3-1-1.7-1c-0.3,0-0.5,0-0.8,0.1C101.5,25,100.1,25.9,99.1,29.4z M106.8,26.6c0.8,0,1.5-0.7,1.5-1.5
					c0-0.8-0.7-1.5-1.5-1.5c-0.8,0-1.5,0.7-1.5,1.5C105.3,26,106,26.6,106.8,26.6z M92.3,38.1c0,0.6,0.1,1.8,0.2,2.3l2.3-1.2
					c-0.2-0.6-0.4-1.6,0-2.3c0,0,0,0,0,0l-2.3-1C92.5,36.5,92.3,37.5,92.3,38.1z M110.1,25.7c0.8,0,1.5-0.7,1.5-1.5
					c0-0.8-0.7-1.5-1.5-1.5c-0.8,0-1.5,0.7-1.5,1.5C108.7,25,109.3,25.7,110.1,25.7z M113.4,24.6c0.8,0,1.5-0.7,1.5-1.5
					c0-0.8-0.7-1.5-1.5-1.5c-0.8,0-1.5,0.7-1.5,1.5C111.9,24,112.6,24.6,113.4,24.6z M96.3,31.8c-0.6,0-1.1,0.5-1.1,1
					c0,0.3,0.1,0.6,0.3,0.7c0,0,0,0,0,0c0,0,0,0,0,0c0.1,0,0.1,0,0.2,0c0.3,0,0.5,0,0.7,0c0.1,0,0.3,0,0.4,0c0,0,0.1,0,0.1,0
					c0,0,0,0,0,0c0,0,0,0,0,0c0.2-0.2,0.3-0.4,0.3-0.7C97.3,32.3,96.8,31.8,96.3,31.8z M81,51.3c0,0,0.1,0,0.1,0L81,50.7l-0.1,0.1
					L81,51.3z M106.4,47.6c0.3,0.2,0.6,0.4,0.8,0.6l0.5-2.1c-0.3,0-0.6-0.1-1-0.1L106.4,47.6z M110.6,48.3l0.4-0.2l0.5-1.4
					c-0.1,0-0.2,0-0.3,0L110.6,48.3z M107.5,48.7c0,0.1,0.1,0.2,0,0.4c0,0.2-0.1,0.4-0.3,0.6l-0.2,0.8c0.2,0,0.5,0,0.7,0.1l1.1-4.2
					c-0.3,0-0.5-0.1-0.8-0.1L107.5,48.7z M104.9,47.2c0.4,0,0.8,0.1,1.1,0.2l0.3-1.5c-0.4,0-0.8-0.1-1.2-0.1L104.9,47.2z
					 M111.6,51.3c0.1,0,0.1,0,0.2,0l0.1-0.3l-0.1-0.2L111.6,51.3z M111.8,46.7l-0.4,1.1l0.3-0.2l0.3-0.9
					C112,46.8,111.9,46.7,111.8,46.7z M111.2,51.1l0.3-0.7l-0.1-0.2l-0.3,0.8C111.1,51.1,111.1,51.1,111.2,51.1z M111,49.9l-0.2-0.2
					l-0.4,1.3c0.1,0,0.1,0,0.2,0L111,49.9z M109.8,50.8c0.1,0,0.2,0,0.2,0.1l0.5-1.5l-0.2-0.2L109.8,50.8z M109,50.7
					c0.1,0,0.3,0,0.4,0.1l0.6-2l-0.1-0.1l0.2-0.1l0.6-2c-0.2,0-0.3,0-0.5-0.1L109,50.7z M108.1,50.6c0.2,0,0.3,0,0.4,0.1l1.2-4.2
					c-0.2,0-0.4-0.1-0.5-0.1L108.1,50.6z M106.6,50.4l0.1-0.3c-0.2,0.1-0.4,0.2-0.6,0.2C106.3,50.4,106.5,50.4,106.6,50.4z
					 M117,39.2c-0.2,0-0.3,0-0.5,0c-0.5,0-1.2,0.2-1.4,1c-0.2,0.7,0,0.9,0.1,1c0,0,0.1,0.1,0.1,0.2c0,0.5-1.5,1.6-3.5,1.6
					c-1.6,0-3.1-0.6-4.5-1.9c-0.4-0.2-0.7-0.3-1.3-0.2c-0.4,0.3-1,0.6-1.7,0.8c-1,0.3-2,0.5-2.8,0.5c-3.1,0-4.1-2.1-4.2-2.2l0-0.1
					l0-0.1c0,0,0.7-1.8,0.2-2.7c-0.2-0.3-0.6-0.5-1.1-0.6c-0.6,0.1-1,0.3-1.2,0.7c-0.5,1,0.3,2.6,0.3,2.6l0.1,0.1l-0.1,0.1
					c-0.1,0.1-1.9,1.9-4.4,2.1c-1,0.1-2.7-0.7-3.9-1.3c-0.1,0-0.3,0-0.4-0.1c-0.5-0.1-0.9-0.1-1.6,0.3c-0.1,0-0.1,0-0.2,0
					c-0.7,0.7-1.8,1.5-3.1,1.8c-0.4,0.1-0.8,0.2-1.3,0.2c-1.8,0-3-0.9-3.1-0.9l-0.2-0.1l0.2-0.2c0,0,0.5-0.5-0.2-1.5
					c-0.3-0.4-0.6-0.6-1-0.6c-0.2,0-0.5,0.1-0.7,0.2c-0.6,0.3-1,1.4-0.7,2.2c0.3,0.8,0.7,1,1.2,1.3c0.2,0.1,0.3,0.2,0.5,0.3
					c0.2,0.2,1.8,0.9,3.9,0.9c2.2,0,4.1-0.8,5.6-2.5l0.1-0.1l0.1,0.1c1.4,0.9,3,1.3,4.6,1.3c1.9,0,3.7-0.6,5.3-1.8l0.1-0.1l0.1,0.1
					c1.2,1.1,3.1,1.7,5.2,1.7c1.6,0,3.2-0.4,4.6-1.3l0.1-0.1l0.1,0.1c1.8,1.5,3.6,2.2,5.5,2.2c2,0,3.4-0.9,3.8-1.1l0.1-0.1
					c1.2-0.7,1.9-1.5,2.1-2.3c0.1-0.4,0-0.9-0.3-1.3C117.6,39.5,117.3,39.3,117,39.2z M121.4,37.6c-0.8,0-1.5,0.7-1.5,1.5
					c0,0.8,0.7,1.5,1.5,1.5c0.8,0,1.5-0.7,1.5-1.5C122.8,38.2,122.2,37.6,121.4,37.6z M115.4,36l0.7,2.8c0.1,0,0.3-0.1,0.5-0.1
					c0.2,0,0.4,0,0.6,0.1c0.4,0.1,0.8,0.4,1,0.8c0.1,0.2,0.2,0.4,0.3,0.7l1.2-2.1c-0.3-0.2-1-0.8-2-1.3
					C116.8,36.4,115.8,36.1,115.4,36z M112.2,51.3L112.2,51.3c0,0.1,0,0.1,0.1,0.1l0,0L112.2,51.3z M124.9,31.7
					c-0.8,0-1.5,0.7-1.5,1.5c0,0.8,0.7,1.5,1.5,1.5c0.8,0,1.5-0.7,1.5-1.5C126.4,32.4,125.7,31.7,124.9,31.7z M123.1,34.6
					c-0.8,0-1.5,0.7-1.5,1.5c0,0.8,0.7,1.5,1.5,1.5c0.8,0,1.5-0.7,1.5-1.5C124.6,35.3,124,34.6,123.1,34.6z M116.1,43.8
					c-0.3,0.2-1.2,0.7-2.4,1c0.3,0.1,0.6,0.1,0.9,0.2l1,0.1l0.9-1.6C116.4,43.6,116.3,43.7,116.1,43.8L116.1,43.8z M114.4,47.2
					L114.4,47.2L114.4,47.2C114.5,47.1,114.5,47.1,114.4,47.2L114.4,47.2z M112.5,46.8l-0.2,0.5l0.3-0.2l0.1-0.3
					C112.7,46.9,112.6,46.8,112.5,46.8z M115.4,45.6c-1-0.2-2.1-0.4-3.1-0.6c-0.1,0-0.2,0-0.4,0c-0.9,0-1.7-0.2-2.6-0.5
					c-2.1-0.3-4.1-0.5-6.2-0.6c-0.5,0.1-1,0.1-1.6,0.1c-0.8,0-1.6-0.1-2.4-0.3c-0.7,0-1.5-0.1-2.2-0.1c-1.3,0-2.6,0-4,0.1
					C92.4,43.9,91.7,44,91,44c-0.4,0-0.7,0-1.1-0.1c-2.1,0.2-4.2,0.4-6.4,0.7c-1,0.4-2.1,0.5-2.9,0.5c-0.1,0-0.2,0-0.3,0
					c-1.1,0.2-2.2,0.4-3.3,0.6c-0.2,0.2-0.3,0.4-0.3,0.7c0.1,0.4,0.7,0.6,1.2,0.5c8.4-1.3,14-2,19.1-2c5.2,0,10.3,0.7,18,1.9l0.1,0
					c0.4,0.2,0.7-0.1,0.8-0.4C115.9,46.3,115.9,45.9,115.4,45.6z M76.8,45.3c0.4-0.1,0.8-0.1,1.1-0.2l0.6-0.2
					c-1.1-0.2-2-0.6-2.2-0.8c-0.1-0.1-0.2-0.1-0.3-0.2L76.8,45.3L76.8,45.3z M81.7,49.8l0.4,1.2c0,0,0.1,0,0.1,0l-0.4-1.3L81.7,49.8
					z M103.6,45.6l-0.2,1.6c0.3-0.1,0.7-0.1,1.1-0.1l0.2-1.4C104.3,45.7,103.9,45.7,103.6,45.6z M83.8,46.4l0.5,1.7
					c0.2-0.2,0.4-0.3,0.7-0.5l-0.3-1.3C84.4,46.3,84.1,46.4,83.8,46.4z M84.9,50.5c0.2,0,0.4-0.1,0.7-0.1l0-0.1
					c-0.3-0.1-0.5-0.2-0.8-0.3L84.9,50.5z M82.9,46.6l1.2,4.1c0.1,0,0.3,0,0.4-0.1l-0.3-0.9c-0.2-0.2-0.3-0.4-0.3-0.6
					c0-0.1,0-0.2,0-0.3l-0.6-2.2C83.2,46.5,83.1,46.5,82.9,46.6z M81.9,46.7l0.6,1.8l0.3,0.1l-0.2,0.2l0.6,2c0.1,0,0.3,0,0.4-0.1
					l-1.2-4.1C82.3,46.6,82.1,46.7,81.9,46.7z M80.3,46.9c-0.1,0-0.1,0-0.2,0l0.1,0.3l0.3,0.1L80.3,46.9z M77.7,47.3l0.1,0.3
					l0.2-0.2l-0.1-0.2C77.8,47.3,77.8,47.3,77.7,47.3z M96.2,50.3c-10.7,0-16.9,1.3-17.3,2.4c-0.2,0.7,0.4,1.1,1,1.3
					c2.6,1,9.8,1.1,16.3,1.1c8.4,0,14-0.4,16.4-1.2c0.8-0.3,0.9-0.6,0.9-1.2C113.4,51.6,106.9,50.3,96.2,50.3z M80.9,46.8
					c-0.1,0-0.1,0-0.2,0l0.3,0.8l0.3,0.1L80.9,46.8z M80.6,51.2l-0.1,0.1l0,0.1c0,0,0.1,0,0.1,0L80.6,51.2z M82.8,50.9l-0.5-1.7
					l-0.1,0.2l0.5,1.6C82.7,50.9,82.8,50.9,82.8,50.9z M86,46.1c-0.3,0-0.6,0.1-1,0.1l0.3,1.2c0.3-0.1,0.6-0.2,0.9-0.2L86,46.1z
					 M101.2,50l0.3-4.6c-1.4-0.1-2.8-0.2-4.1-0.2l3.4,2.2l-3.5,2.4C98.6,49.9,99.9,50,101.2,50z M88,45.9l0.2,1.3
					c0.5,0.1,0.8,0.2,1.1,0.5l-0.2-1.9C88.7,45.8,88.3,45.8,88,45.9z M91.1,45.6l0.3,4.5c1.3-0.1,2.7-0.1,4-0.1l-3.5-2.4l3.3-2.2
					C93.9,45.3,92.5,45.4,91.1,45.6z M101.6,50.1c0.3,0,0.7,0,1,0l0,0c-0.4-0.2-0.8-0.5-0.9-0.8L101.6,50.1z M103.1,45.6
					c-0.4,0-0.8-0.1-1.2-0.1l-0.2,2.5c0.2-0.3,0.6-0.5,1.2-0.7L103.1,45.6z M88.6,50.1L88.6,50.1c0.3,0.1,0.7,0.1,1,0l-0.1-0.6
					c-0.1,0.1-0.3,0.3-0.4,0.4C89,50,88.8,50,88.6,50.1z M75.5,39.7c0.3-0.2,0.6-0.3,0.9-0.3c0.1,0,0.2,0,0.3,0l0.8-3
					c-0.5,0-1.7,0.1-2.8,0.5c-0.8,0.3-1.4,0.8-1.6,1l1.5,3C74.7,40.4,75,39.9,75.5,39.7z M81.6,51.1c0,0,0.1,0,0.1,0l-0.3-0.9
					l-0.1,0.1L81.6,51.1z M81.3,46.8l0.4,1.3l0.2,0.1l-0.5-1.4C81.4,46.8,81.4,46.8,81.3,46.8z M87.7,47.1l-0.2-1.2
					c-0.4,0-0.8,0.1-1.2,0.1l0.2,1.1c0.1,0,0.1,0,0.2,0C87.1,47.1,87.4,47.1,87.7,47.1z M90,50.1c0.3,0,0.7,0,1-0.1l-0.3-4.5
					c-0.4,0-0.8,0.1-1.2,0.1l0.3,2.5c0.1,0.1,0.1,0.3,0.1,0.4c0,0.1,0,0.2,0,0.4L90,50.1z"/>
			</g>
		</g>
		<g>
			<g>
				<g>
					<path class="st102" d="M106.8,26.1C106.8,26.1,106.9,26.1,106.8,26.1c0.3,0,0.5-0.1,0.7-0.3c0.1-0.2,0.2-0.4,0.2-0.6
						c0-0.3-0.2-0.5-0.4-0.6l-0.3,0.3c0.1,0.1,0.2,0.2,0.2,0.4c0,0.1,0,0.2-0.1,0.3c-0.1,0.1-0.2,0.1-0.3,0.2c-0.1,0-0.3,0-0.4-0.1
						c-0.1-0.1-0.1-0.1-0.1-0.2c0-0.1,0-0.3,0.1-0.4l-0.3-0.3c-0.2,0.2-0.3,0.5-0.2,0.7c0,0.2,0.1,0.4,0.3,0.5
						C106.4,26,106.6,26.1,106.8,26.1z M113.1,24c0.1,0,0.1,0,0.2,0c0.2,0,0.3,0,0.5-0.1c0.2-0.1,0.3-0.3,0.4-0.5
						c0.1-0.2,0-0.5-0.1-0.7c-0.1-0.2-0.3-0.3-0.6-0.4l-0.1,0.4c0.1,0,0.3,0.1,0.3,0.2c0.1,0.1,0.1,0.2,0.1,0.3
						c0,0.1-0.1,0.2-0.2,0.3c-0.1,0.1-0.3,0.1-0.4,0.1c-0.1,0-0.2-0.1-0.2-0.2c-0.1-0.1-0.1-0.3,0-0.4l-0.4-0.1
						c-0.1,0.3,0,0.5,0.1,0.7C112.8,23.8,112.9,23.9,113.1,24z M119.4,25.5c0.2,0,0.4-0.1,0.6-0.2c0.4-0.3,0.4-0.9,0-1.3l-0.3,0.3
						c0.2,0.2,0.2,0.5,0,0.7c-0.2,0.2-0.5,0.1-0.7-0.1c-0.2-0.2-0.1-0.5,0.1-0.6l-0.3-0.3c-0.4,0.3-0.5,0.9-0.1,1.2
						C118.9,25.3,119.1,25.5,119.4,25.5z M123.3,30.9c0.1,0,0.1,0,0.2,0c0.2,0,0.3,0,0.4-0.1c0.2-0.1,0.3-0.3,0.4-0.5
						c0.1-0.2,0-0.5-0.1-0.7l-0.4,0.2c0.1,0.1,0.1,0.3,0.1,0.4c0,0.1-0.1,0.2-0.2,0.3c-0.1,0.1-0.2,0.1-0.3,0
						c-0.1,0-0.2-0.1-0.3-0.2c-0.1-0.1-0.1-0.2,0-0.3c0-0.1,0.1-0.2,0.3-0.3l-0.2-0.4c-0.2,0.1-0.4,0.3-0.4,0.6c0,0.2,0,0.4,0.1,0.6
						C122.8,30.7,123,30.8,123.3,30.9z M121.8,38.2l-0.2,0.4c0.1,0.1,0.2,0.2,0.3,0.4c0,0.1,0,0.3-0.1,0.4c-0.1,0.1-0.2,0.2-0.3,0.2
						c-0.1,0-0.3,0-0.4-0.1c-0.1-0.1-0.1-0.1-0.1-0.2c0-0.1,0-0.3,0.1-0.4l-0.3-0.3c-0.2,0.2-0.3,0.5-0.2,0.7c0,0.2,0.1,0.4,0.3,0.5
						c0.2,0.1,0.4,0.2,0.6,0.2c0,0,0,0,0.1,0c0.2,0,0.5-0.1,0.6-0.3c0.1-0.2,0.2-0.4,0.2-0.7C122.2,38.6,122.1,38.3,121.8,38.2z
						 M126.8,33.2c0-1-0.8-1.9-1.9-1.9c0,0,0,0,0,0c0.3-0.3,0.5-0.7,0.5-1.2c0-1-0.8-1.9-1.9-1.9c-0.2,0-0.3,0-0.5,0.1
						c0.2-0.3,0.3-0.6,0.3-1c0-1-0.8-1.9-1.9-1.9c-0.2,0-0.3,0-0.4,0.1c0.2-0.3,0.3-0.6,0.3-0.9c0-1-0.8-1.9-1.9-1.9
						c-0.3,0-0.6,0.1-0.8,0.2c0.1-0.2,0.1-0.4,0.1-0.7c0-1-0.8-1.9-1.9-1.9c-1,0-1.8,0.7-1.9,1.7c-0.3-0.5-0.9-0.8-1.5-0.8
						c-1,0-1.8,0.8-1.9,1.7c-0.3-0.4-0.8-0.6-1.4-0.6c-1,0-1.8,0.7-1.9,1.7c-0.3-0.4-0.9-0.7-1.5-0.7c-0.9,0-1.7,0.6-1.8,1.5
						c-0.4-0.5-1.1-0.7-1.7-0.7c-0.3,0-0.6,0.1-0.9,0.1c-0.4,0.1-0.8,0.3-1.3,0.7l-0.6-0.8c0.7-0.9,1.2-2,1.2-3.3
						c0-1.8-0.9-3.4-2.3-4.4l-1.5-2.1l2.5,1.5l0.1-0.3c0,0,0.3-0.9,0.3-2.8c0-1.9-0.3-2.3-0.3-2.4l-0.1-0.2l-2.5,1.2L99.6,9
						l-0.3-0.1c0,0-1.2-0.4-3-0.4c-1.8,0-3,0.3-3.1,0.3L93,8.9l1.7,2.6l-2.6-1.3l-0.1,0.1c-0.1,0.1-0.3,0.5-0.3,2.5
						c0,2,0.3,2.7,0.4,2.7l0.1,0.2l2.6-1.4l-1.4,2.1C92,17.4,91,19,91,20.9c0,1.3,0.4,2.4,1.2,3.3l-0.6,0.7
						c-0.4-0.3-0.8-0.5-1.1-0.6c-0.3-0.1-0.6-0.1-0.9-0.1c-0.6,0-1.3,0.2-1.7,0.7c-0.2-0.9-0.9-1.6-1.8-1.6c-0.6,0-1.2,0.3-1.5,0.8
						c-0.1-0.9-0.9-1.7-1.9-1.7c-0.6,0-1.1,0.3-1.4,0.7c-0.1-0.9-0.9-1.7-1.9-1.7c-0.6,0-1.2,0.3-1.5,0.8c-0.1-0.9-0.9-1.6-1.8-1.6
						c-1,0-1.9,0.8-1.9,1.9c0,0.3,0.1,0.5,0.1,0.7C74,23.1,73.8,23,73.5,23c-1,0-1.9,0.8-1.9,1.9c0,0.3,0.1,0.5,0.2,0.8
						c-0.1,0-0.2,0-0.4,0c-1,0-1.9,0.8-1.9,1.9c0,0.3,0.1,0.5,0.2,0.8c-0.1,0-0.3-0.1-0.5-0.1c-1,0-1.9,0.8-1.9,1.9
						c0,0.5,0.2,1,0.6,1.3c-0.9,0.1-1.7,0.9-1.7,1.9c0,1,0.8,1.9,1.9,1.9c0,0,0,0,0.1,0c-0.2,0.3-0.4,0.7-0.4,1.1
						c0,1,0.8,1.9,1.9,1.9c0.1,0,0.1,0,0.2,0c-0.2,0.3-0.4,0.7-0.4,1.1c0,1,0.8,1.9,1.9,1.9c0.9,0,1.7-0.7,1.8-1.6l1.3,2.4
						c0,0.2,0,0.3,0.1,0.5c0.2,0.5,0.5,0.9,0.8,1.1l1.1,2.1c-0.2,0.3-0.3,0.6-0.2,0.9c0.1,0.4,0.5,0.7,1,0.8l0.2,0.7l-1.8,2.1
						l3.1,1.8l0.1,0.3c-0.2,0.2-0.3,0.3-0.4,0.5c-0.3,0.8,0.2,1.5,1.2,1.9c2.4,0.9,8.1,1.1,16.5,1.1c5.9,0,13.5-0.2,16.5-1.3
						c0.9-0.3,1.2-0.8,1.2-1.7c0-0.2-0.2-0.4-0.4-0.6l3.5-2l-2.2-2.5l0.2-0.4c0.6,0.2,1.2-0.1,1.3-0.7c0.1-0.3,0-0.8-0.4-1.1
						l1.5-2.6c0.5-0.5,0.9-1.1,1.1-1.6c0-0.1,0-0.1,0-0.2l1-1.8c0.1,0.9,0.9,1.7,1.8,1.7c1,0,1.9-0.8,1.9-1.9c0-0.4-0.1-0.8-0.3-1.1
						c0.1,0,0.2,0,0.3,0c1,0,1.9-0.8,1.9-1.9c0-0.4-0.1-0.8-0.3-1.1c0.1,0,0.2,0,0.2,0C126,35,126.8,34.2,126.8,33.2z M123.5,28.6
						c0.8,0,1.5,0.7,1.5,1.5c0,0.8-0.7,1.5-1.5,1.5c-0.8,0-1.5-0.7-1.5-1.5C122,29.3,122.7,28.6,123.5,28.6z M119.9,37.8
						c-0.2-0.2-0.6-0.5-1.2-0.9l0.2-0.2l-0.6-0.4l0.1-0.2l0.6,0.4l0.2-0.3l-0.6-0.4l0.1-0.2l0.6,0.4l0.2-0.3l-0.6-0.4l0.1-0.2
						l0.6,0.4l0.2-0.3l-0.6-0.4l0.2-0.3l0.6,0.4l0.2-0.4l-0.6-0.4l0.1-0.2l0.7,0.3l0.1-0.4l-0.6-0.2l0.1-0.2l0.7,0.1l0.1-0.4
						l-0.6-0.1l0-0.1l0.7-0.2l-0.1-0.4l-0.6,0.1l0-0.1l0.5-0.5l-0.3-0.3l-0.5,0.5l-0.1-0.2l0.5-0.4l-0.3-0.3l-0.5,0.4l-0.2-0.2
						l0.5-0.4l-0.3-0.3l-0.5,0.4l-0.1-0.2l0.6-0.5l-0.3-0.3l-0.6,0.5l-0.2-0.3l0.6-0.5l-0.3-0.3l-0.6,0.5l-0.2-0.2l0.4-0.5l-0.3-0.3
						l-0.4,0.5l-0.2-0.2l0.5-0.5l-0.3-0.3l-0.5,0.5l-0.2-0.2l0.5-0.5l-0.3-0.3l-0.5,0.4l-0.2-0.2l0.5-0.4l-0.3-0.3l-0.4,0.4
						l-0.1-0.2l0.4-0.5l-0.3-0.3l-0.4,0.4l-0.1-0.1l0.5-0.5l-0.3-0.3l-0.4,0.5l0-0.5l-0.4,0l0,0.7c0,0-0.1,0-0.2,0.1l-0.1-0.7
						l-0.4,0l0.1,0.8c-0.1,0-0.2,0.1-0.3,0.1l0-0.7l-0.4,0l0,0.8c-0.1,0-0.2,0.1-0.3,0.1l0-0.7l-0.4,0l0,0.8c-0.1,0-0.2,0.1-0.3,0.1
						l0-0.7l-0.4,0l0,0.8c-0.1,0-0.2,0.1-0.3,0.1l0-0.7l-0.4,0l0,0.9c-0.1,0-0.2,0.1-0.3,0.1l0-0.8h-0.4l0,0.9
						c-0.1,0-0.2,0.1-0.3,0.1l0-0.8h-0.4l0,0.9c-0.1,0-0.2,0.1-0.3,0.1l0-0.7l-0.4,0l0,0.8c-0.1,0-0.2,0.1-0.3,0.1l0-0.7l-0.4,0
						l0,0.9c-0.1,0-0.2,0-0.3,0.1l0-0.7l-0.4,0l0,0.8c-0.1,0-0.2,0-0.3,0.1l0-0.8l-0.4,0l0,0.9c-0.1,0-0.2,0-0.3,0.1l0-0.8l-0.4,0
						l0,0.9c-0.1,0-0.2,0-0.3,0.1l0-0.7l-0.4,0l0,0.8c-0.1,0-0.2,0-0.3,0.1l0-0.8l-0.4,0l0,0.8c-0.1,0-0.2,0-0.3,0.1l0-0.7l-0.4,0
						l0,0.8c-0.1,0-0.2,0-0.3,0.1l0-0.8l-0.4,0l0,0.9c-0.1,0-0.2,0-0.3,0.1l0-0.8l-0.4,0l0,0.8c-0.1,0-0.2,0-0.3,0l0-0.7l-0.4,0
						l0,0.8c-0.1,0-0.2,0-0.3,0l0-0.6l-0.4,0l0,0.7c-0.1,0-0.2,0-0.3,0l0-0.7l-0.4,0c0.4-0.7,0.9-1.3,1.4-1.6c0.1,0,0.3-0.1,0.4-0.1
						c0.5,0,1-0.1,1.5-0.3c5.4-1.3,11-3.2,12-3.6l6.5,8.4L119.9,37.8z M121.6,37.2c-0.1,0-0.2,0-0.3,0c-0.2,0-0.5,0.1-0.7,0.1l0.6-1
						C121.3,36.6,121.4,36.9,121.6,37.2z M114.9,41.2l-2.2,0.5c0.1-0.5,0.3-1.5,0.4-2.1c0.2-0.6,0.6-1.7,0.9-2.2l1.5,1.6
						c-0.4,0.2-0.7,0.6-0.8,1.1C114.7,40.6,114.7,40.9,114.9,41.2z M114.7,41.6c0,0-0.1,0.1-0.2,0.1l-0.1,0L114.7,41.6z M114.1,42
						c-0.2,0.1-0.4,0.2-0.7,0.3l-0.3-0.3l0.8-0.2L114.1,42z M108.6,40L108.6,40l2.8,2.4c-0.5-0.1-0.9-0.2-1.4-0.3l-1.3-1.1
						c0,0,0.1-0.1,0.1-0.1C108.9,40.6,108.8,40.3,108.6,40z M104.9,40.5l-1.6-1.4c0.2-0.1,0.5-0.1,0.7-0.1c0.1,0,0.2,0,0.3,0
						l0.7,0.6c-0.2,0.2-0.2,0.4-0.2,0.5C104.8,40.4,104.8,40.5,104.9,40.5z M92.6,40.5c-0.1-0.5-0.2-1.7-0.2-2.3
						c0-0.6,0.1-1.7,0.2-2.1l2.3,1c0,0,0,0,0,0c-0.4,0.7-0.2,1.6,0,2.3L92.6,40.5z M94.3,40.4c-0.2,0.1-0.4,0.2-0.6,0.4l-0.4-0.3
						l0.6-0.3L94.3,40.4z M88,40.1c-0.1-0.2-0.2-0.4-0.4-0.5l0,0c0,0,0.2-0.1,0.5-0.1l2.6,2.3c-0.4,0-0.9-0.1-1.4-0.3L88,40.1z
						 M88.3,40.9c-0.1-0.1-0.3-0.1-0.4-0.2c0,0,0.1-0.1,0.1-0.1L88.3,40.9z M81.1,41.3c0.1-0.2,0.3-0.4,0.4-0.5l1.5,1.3
						c-0.2,0.1-0.4,0.2-0.7,0.3L81.1,41.3z M81.9,42.5c0,0-0.1,0-0.1,0c-0.2,0.1-0.5,0.1-0.8,0.1l-0.4-0.3c0-0.1,0-0.4-0.1-0.8
						c0,0,0.1,0.1,0.2,0.1c0,0,0.1,0,0.1,0L81.9,42.5z M81.8,40.5c0.2-0.2,0.4-0.3,0.6-0.4l1.5,1.3c-0.2,0.1-0.4,0.3-0.6,0.4
						L81.8,40.5z M82.9,40c0.3-0.1,0.6-0.1,0.8-0.1l0.4,0.3c-0.1,0.2-0.2,0.4-0.1,0.6c0.1,0.2,0.2,0.3,0.4,0.4c0,0,0,0-0.1,0.1
						L82.9,40z M84.3,39.4c0,0-2-0.5-3.6,1.6c0-0.1-0.1-0.2-0.1-0.3c-0.1-0.3-0.1-1.1,0.3-1.7c0.3-0.5,0.9-0.8,1.7-0.8
						c0.1,0,0.2,0,0.2,0c1.2,0.1,1.6,0.6,2,1c0.1,0.1,0.2,0.2,0.3,0.3c-0.1,0-0.2,0.1-0.3,0.1L84.3,39.4z M77.7,40.2
						c-0.2-0.3-0.4-0.5-0.6-0.6l1.8-1.8c0.2,0.3,0.5,1.1,0.8,2.1c0.3,1,0.4,1.8,0.5,2.2l-2.1-0.4C78.2,41.4,78.1,40.9,77.7,40.2z
						 M74.1,36.7c-0.8,0.3-1.2,0.8-1.4,0.9l-2.8-5.2l6.6-8c0.9,0.3,6.5,2.2,12,3.4c0.3,0.2,0.7,0.2,1.1,0.2c0.2,0,0.4,0.1,0.6,0.1
						c0.6,0.3,1,1,1.5,1.8l-0.3,0l0,0.4c-0.1,0-0.2,0-0.3,0l0-0.5l-0.4,0l0,0.5c-0.1,0-0.2,0-0.3,0l0-0.6l-0.4,0l0,0.6
						c-0.1,0-0.2,0-0.3,0l0-0.7l-0.4,0l0,0.6c-0.1,0-0.2,0-0.3-0.1l0-0.7l-0.4,0l0,0.7c-0.1,0-0.2,0-0.3-0.1l0-0.8l-0.4,0l0,0.7
						c-0.1,0-0.2,0-0.3-0.1l0-0.8l-0.4,0l0,0.7c-0.1,0-0.2,0-0.2,0l0.1-0.8l-0.4-0.1l-0.1,0.7c-0.1,0-0.2,0-0.3-0.1l0.1-0.8l-0.4,0
						l-0.1,0.7c-0.1,0-0.2,0-0.3-0.1l0.1-0.8l-0.4,0l-0.1,0.8c-0.1,0-0.2,0-0.3-0.1l0.1-0.8l-0.4,0l-0.1,0.7c-0.1,0-0.2-0.1-0.4-0.1
						l0-0.9l-0.4,0l0,0.8c-0.1,0-0.2,0-0.3-0.1l0-0.9l-0.4,0l0,0.8c-0.1,0-0.2-0.1-0.3-0.1l0-0.9l-0.4,0l0,0.8
						c-0.1,0-0.2-0.1-0.3-0.1l0-0.9l-0.4,0l0,0.8c-0.1,0-0.2-0.1-0.3-0.1l0-0.9l-0.4,0l0,0.8c-0.1,0-0.2-0.1-0.3-0.1l0-0.9l-0.4,0
						l0,0.7c-0.1,0-0.2-0.1-0.3-0.1V27h-0.4v0.7c-0.1,0-0.2-0.1-0.3-0.1l0.1-0.7l-0.4-0.1l-0.1,0.7c-0.1,0-0.2-0.1-0.3-0.1l0.1-0.7
						l-0.4-0.1l-0.1,0.7c-0.1,0-0.2-0.1-0.3-0.1l0.1-0.8l-0.4-0.1l-0.1,0.6l-0.2-0.7l-0.4,0.1l0.3,0.9l0,0.1l-0.5-0.6L76.2,27
						l0.5,0.7l-0.1,0.1L76,27.1l-0.3,0.3l0.6,0.6l-0.1,0.1l-0.6-0.5l-0.3,0.3l0.6,0.6l-0.1,0.1L75.2,28l-0.3,0.3l0.7,0.6l-0.2,0.2
						l-0.7-0.6l-0.3,0.3l0.7,0.6l-0.1,0.1L74.4,29l-0.3,0.3l0.7,0.6l-0.2,0.2L74,29.6l-0.3,0.3l0.7,0.5l-0.1,0.2L73.6,30l-0.3,0.3
						l0.7,0.6l-0.2,0.2L73,30.5l-0.3,0.3l0.8,0.7l-0.1,0.1L72.7,31l-0.3,0.3l0.7,0.6L73.1,32l-0.8-0.4l-0.2,0.4l0.7,0.4l-0.7-0.1
						l0,0.4l0.8,0.1l0.1,0.2L72.3,33l0.1,0.4l0.8-0.2l0.1,0.2l-0.7,0.3l0.1,0.4l0.7-0.3l0.1,0.2l-0.7,0.4l0.2,0.4l0.7-0.3l0.1,0.3
						L73.2,35l0.2,0.4l0.6-0.3l0.1,0.2l-0.6,0.4l0.2,0.4l0.6-0.4l0.1,0.2l-0.6,0.3l0.2,0.4l0.6-0.3l0.1,0.1l-0.6,0.3L74.1,36.7z
						 M72.2,37.5c-0.2-0.1-0.5-0.2-0.8-0.2c-0.1,0-0.1,0-0.2,0c0.2-0.3,0.3-0.6,0.3-0.9L72.2,37.5z M70.6,34.6
						c-0.3-0.1-0.5-0.2-0.9-0.2c0,0,0,0-0.1,0c0.2-0.3,0.3-0.6,0.3-0.9L70.6,34.6z M69.7,32.2c-0.1-0.1-0.1-0.2-0.2-0.2
						c0.2,0,0.3-0.1,0.5-0.1L69.7,32.2z M71,29.3c0.1,0,0.3,0.1,0.4,0.1c0.2,0,0.4,0,0.6-0.1l-1,1.2c0-0.1,0.1-0.2,0.1-0.3
						C71.1,29.8,71.1,29.5,71,29.3z M73.1,26.7c0.1,0,0.2,0,0.4,0c0.3,0,0.5-0.1,0.8-0.2l-1,1.2c0-0.1,0-0.2,0-0.3
						C73.3,27.2,73.2,26.9,73.1,26.7z M75.2,24.1c0.2,0.1,0.5,0.2,0.8,0.2c0,0,0.1,0,0.1,0l-0.8,1c0-0.1,0.1-0.3,0.1-0.4
						C75.4,24.6,75.3,24.4,75.2,24.1z M79.8,25.1c0.4-0.1,0.7-0.3,1-0.6c0,0.4,0.2,0.8,0.5,1C80.8,25.4,80.3,25.2,79.8,25.1z
						 M92.2,30.9c0.3,0.8,0.6,1.6,0.8,2.2c-1.7-1.1-4.2-1.1-6.3,0.2c-1.5-0.8-2.9-1.2-4.1-1.2c-1.2,0-2.3,0.4-3.6,1.1
						c-1.3-0.7-2.6-1-3.8-1c-0.8,0-1.3,0.1-1.8,0.3l0-0.1l4.1-5C78.4,27.8,85.2,30.1,92.2,30.9z M91.8,30.5l0-0.3
						c0.1,0.1,0.1,0.2,0.2,0.3C91.9,30.5,91.9,30.5,91.8,30.5z M93.2,33.9c0.1,0.2,0.1,0.3,0.1,0.3l0.1,0.5l-2.2-1.9
						c0.7,0.1,1.3,0.4,1.9,0.8l0.1,0.1C93.2,33.8,93.2,33.8,93.2,33.9L93.2,33.9L93.2,33.9z M86.7,37.6c0-0.3,0-0.6-0.1-0.9
						c0,0,0,0,0-0.1l1.1,1c-0.2,0.1-0.4,0.3-0.5,0.4L86.7,37.6z M87,38.3c-0.1,0.1-0.2,0.2-0.2,0.3c0-0.2,0-0.3,0-0.5L87,38.3z
						 M86.5,36c-0.1-0.4-0.2-0.8-0.3-1.1l2.7,2.4c-0.1,0-0.2,0-0.3,0.1c-0.2,0-0.3,0.1-0.4,0.2L86.5,36z M76.2,32.7
						c0.5,0.1,1,0.2,1.5,0.4l5.4,4.7c-0.1,0-0.2,0-0.3-0.1c-0.3,0-0.5,0-0.7,0L76.2,32.7z M81.6,38c-0.3,0.1-0.5,0.2-0.6,0.3
						l-6.5-5.6c0.2,0,0.4-0.1,0.6-0.1c0.1,0,0.3,0,0.4,0L81.6,38z M79,33.7L79,33.7c0.3-0.2,0.4-0.3,0.6-0.3l4.9,4.3
						c0.1,0.3,0.1,0.7,0.2,1c-0.2-0.2-0.4-0.3-0.7-0.5L79,33.7z M84.4,34.6c0,0.3,0,0.5-0.1,0.8l-3.2-2.8c0.3-0.1,0.6-0.1,0.8-0.2
						L84.4,34.6z M82.5,32.5c0.4,0,0.8,0.1,1.2,0.1l1,0.8c-0.1,0.2-0.2,0.4-0.2,0.7L82.5,32.5z M84.3,36c0,0.3,0,0.6,0.1,0.9
						c0,0,0,0.1,0,0.1L80,33.1c0.2-0.1,0.5-0.2,0.7-0.3L84.3,36z M85.1,33.6c0.4,0.4,0.9,1.5,1.1,3.2c0.1,1.1,0.1,2,0,2.6
						c-0.2,0-0.4,0-0.7,0.1c0,0-0.1-0.1-0.1-0.1c-0.2-0.5-0.5-1.3-0.6-2.4C84.6,35.2,84.8,34,85.1,33.6z M85.9,34
						c-0.2-0.4-0.5-0.7-0.7-0.9l-0.1-0.1L85,33.1c0,0,0,0,0,0l-0.3-0.3c0.6,0.2,1.2,0.5,1.9,0.8l0.1,0.1l0,0l5.3,4.6
						c0,0.3,0,0.6,0.1,0.9l-0.3-0.2c-0.1-0.4-0.2-0.8-0.5-1.2c-0.3-0.4-0.8-0.8-1.7-0.8l0,0L85.9,34z M87.1,33.6
						c0.2-0.1,0.4-0.2,0.7-0.3L92,37c0,0.3-0.1,0.6-0.1,0.8L87.1,33.6z M88.2,33.1c0.3-0.1,0.5-0.2,0.8-0.2l3.2,2.8
						c0,0.1-0.1,0.4-0.1,0.8L88.2,33.1z M74.2,34.4l2.1,1.8c-0.3,0-0.5,0.1-0.8,0.2l-0.5-0.4L74.2,34.4z M73.7,33.4l-0.2-0.5
						c0.2-0.1,0.3-0.1,0.5-0.1l3.8,3.3l0,0c0,0-0.4,0-0.9,0.1L73.7,33.4z M77.6,37.4l0.6,0.5l-0.5,0.5l-0.3-0.3L77.6,37.4z
						 M77.5,38.7l-0.2,0.2l0.1-0.4L77.5,38.7z M80,39.4l0.2,0.2c0,0.1,0,0.2-0.1,0.2c0,0,0,0,0,0C80.1,39.7,80,39.6,80,39.4z
						 M80.3,42.6l0.2,0.1c-0.5,0-0.9-0.1-1.2-0.2L79,42.3L80.3,42.6z M80.3,39.2l-0.6-0.5c-0.3-0.8-0.6-1.2-0.6-1.2L79,37.2
						l-0.5,0.4l-0.8-0.7l0.2-0.7l2.7,2.4c-0.1,0.1-0.1,0.1-0.2,0.2C80.4,38.9,80.4,39,80.3,39.2z M84.7,40.1c0.4-0.2,1-0.3,1.6-0.3
						c0.3,0,0.6,0,0.8,0.1c0.2,0.1,0.4,0.3,0.4,0.5c0,0.1-0.2,0.1-0.3,0.1c-0.1,0-0.3,0-0.4-0.1c-0.6-0.1-1-0.1-1.9,0.3
						c-0.1,0.1-0.3,0.1-0.4,0.1c-0.1,0-0.2,0-0.2-0.1C84.3,40.5,84.4,40.3,84.7,40.1z M87.4,39.2l-0.3,0.2c-0.1,0-0.2,0-0.3,0
						c0.1-0.1,0.1-0.2,0.2-0.3c0.3-0.5,0.6-1.1,1.8-1.4c0.9-0.3,1.7-0.1,2.2,0.5c0.4,0.5,0.5,1.2,0.5,1.5c0,0.1,0,0.3-0.1,0.3
						c-1-0.9-2-1.1-2.6-1.1C88,38.9,87.5,39.2,87.4,39.2z M88.8,39.4c0.5,0,1,0.2,1.5,0.4l1.9,1.7c-0.3,0.1-0.5,0.1-0.8,0.2
						L88.8,39.4z M91.6,40.4c0-0.1,0.1-0.2,0.1-0.3c0-0.1,0-0.2,0.1-0.4c0,0,0,0,0-0.1l0.3,0.3c0.1,0.5,0.1,0.8,0.1,0.9l0,0.1
						L91.6,40.4z M89.5,32.8c0.3,0,0.7,0,1,0l3,2.6l0.1,0.6l-1-0.4L89.5,32.8z M93.3,41c-0.2,0.1-0.4,0.2-0.7,0.3L92.3,41l0.6-0.3
						L93.3,41z M93.8,35l0.9,1.5l-0.7-0.3L93.8,35z M95,39.7c0,0.1,0.1,0.1,0.1,0.2c-0.1,0.1-0.2,0.2-0.4,0.3L94.4,40L95,39.7z
						 M93.8,34.2c0.6-0.1,1.9-0.2,2.7-0.2c0.8,0,2,0.1,2.5,0.2l-1.4,2.4c-0.3-0.3-0.7-0.4-1.3-0.5c-0.5,0.1-0.8,0.2-1.1,0.4
						L93.8,34.2z M97.6,27.5c0,0.7-0.6,1.3-1.3,1.3c-0.7,0-1.3-0.6-1.3-1.3c0-0.7,0.6-1.3,1.3-1.3C97,26.2,97.6,26.8,97.6,27.5z
						 M94.4,23.8c0-1.1,0.9-2,2-2s2,0.9,2,2s-0.9,2-2,2S94.4,24.8,94.4,23.8z M96.3,29.3c0.6,0,1.1,0.5,1.1,1c0,0.6-0.5,1-1.1,1
						c-0.6,0-1-0.5-1-1C95.3,29.8,95.8,29.3,96.3,29.3z M96.3,31.8c0.6,0,1,0.5,1,1c0,0.3-0.1,0.5-0.3,0.7c-0.1,0-0.1,0-0.2,0
						c0,0,0,0,0,0c0.1-0.2,0.2-0.3,0.2-0.5c0-0.4-0.4-0.8-0.8-0.8h0l0,0.4h0c0.2,0,0.4,0.2,0.4,0.4c0,0.1,0,0.2-0.1,0.3
						c-0.1,0.1-0.2,0.1-0.3,0.1h0c-0.2,0-0.3-0.2-0.3-0.4l-0.4,0c0,0.1,0,0.2,0.1,0.3c0,0,0,0,0,0c0,0.1,0.1,0.2,0.2,0.3h0
						c-0.1,0-0.2,0-0.2,0c-0.2-0.2-0.3-0.5-0.3-0.7C95.2,32.3,95.7,31.8,96.3,31.8z M100.3,36c0.1,0.4,0.2,1.3,0.2,2.2
						c0,0.8-0.1,1.8-0.2,2.3l-2.3-1.2c0.2-0.6,0.3-1.6,0-2.3L100.3,36z M99.3,35.7l0.1-0.8l0.8,0.7l-0.7,0.3L99.3,35.7z M98.2,36.4
						L99,35l-0.2,1.2L98.2,36.4z M97.8,39.6l1.2,0.7l1.5,1.3c-1.8-0.3-2.6-1.5-2.8-1.8C97.8,39.7,97.8,39.7,97.8,39.6z M99.6,34.4
						l0-0.2c0,0,0-0.1,0.1-0.3l0-0.1l0,0c0,0,0-0.1,0-0.1l3.6,3.2c-0.3,0-0.6,0.1-0.8,0.2L99.6,34.4z M115.6,27.3l4.2,5.4l0,0.1
						c-0.4-0.2-1.7-0.6-3.2-0.6c-1.3,0-2.4,0.3-3.5,0.9c-1.1-0.6-2.3-0.8-3.5-0.8c-1.3,0-2.5,0.3-3.4,1c-0.8-0.5-1.9-0.7-3.2-0.7
						c-1.1,0-2.1,0.2-3,0.6c0.2-0.6,0.4-1.3,0.7-2C107.4,30.2,114.5,27.7,115.6,27.3z M101,30.3c0.1-0.2,0.2-0.3,0.3-0.5l0,0.7
						c-0.1,0-0.2,0-0.3,0L101,30.3z M119.5,33l-0.1,0.1l-0.5,1l-1.9-1.6C118.2,32.6,119.1,32.9,119.5,33z M115.1,36.5l-4.4-3.8
						c0.5,0.1,1,0.2,1.4,0.4l2.8,2.5l-0.1,0L115.1,36.5z M104,38.7c-0.8,0-1.7,0.3-2.4,0.9c0-0.1,0-0.2,0-0.3c0-0.3,0.1-0.9,0.5-1.4
						c0.2-0.3,0.7-0.6,1.3-0.6c0.3,0,0.6,0.1,0.9,0.2c1.1,0.4,1.4,1,1.7,1.5c0.1,0.1,0.1,0.3,0.2,0.4c-0.1,0-0.2,0-0.3,0l-0.4-0.3
						C105.5,39,104.9,38.7,104,38.7z M105.4,39.4C105.3,39.4,105.3,39.4,105.4,39.4l-0.2-0.1c0.1,0,0.1,0.1,0.1,0.1L105.4,39.4z
						 M100.9,37.6l0.6,0.5c-0.1,0.2-0.2,0.5-0.2,0.7l-0.3-0.3c0-0.1,0-0.2,0-0.3C100.9,38,100.9,37.8,100.9,37.6z M100.8,37
						c0-0.4-0.1-0.8-0.1-1l1.5,1.3c-0.1,0.1-0.3,0.2-0.4,0.3c0,0-0.1,0.1-0.1,0.2L100.8,37z M100,33.4c0.2-0.1,0.5-0.2,0.7-0.3
						l5.4,4.7c0,0.2,0,0.3,0,0.5c-0.3-0.4-0.7-0.9-1.7-1.3c-0.1,0-0.3-0.1-0.4-0.1L100,33.4z M106.2,37.3l-4.9-4.3
						c0.3-0.1,0.6-0.1,0.9-0.1l4.2,3.6c0,0,0,0,0,0.1C106.2,36.8,106.2,37.1,106.2,37.3z M102.7,32.8c0.1,0,0.2,0,0.2,0
						c0.3,0,0.6,0,0.8,0l2.8,2.4c-0.1,0.2-0.1,0.5-0.2,0.7L102.7,32.8z M104.5,33c0.6,0.1,1.1,0.3,1.5,0.5l0.1,0.1l0.1,0l0.8,0.7
						c-0.1,0.2-0.2,0.4-0.3,0.7L104.5,33z M106.5,33.3c0.2-0.1,0.4-0.2,0.6-0.3l0.4,0.3c-0.1,0.1-0.3,0.3-0.4,0.5L106.5,33.3z
						 M106.7,36.7c0.2-1.6,0.8-2.8,1.2-3.1c0.3,0.5,0.5,1.7,0.2,3.4c-0.2,1.2-0.5,2-0.8,2.5c-0.2-0.1-0.4-0.1-0.6-0.1
						c0,0,0-0.1-0.1-0.1C106.5,38.6,106.5,37.8,106.7,36.7z M108.2,38.2l0.3,0.3c-0.2,0.1-0.4,0.3-0.5,0.4l0,0
						C108.1,38.7,108.1,38.5,108.2,38.2z M108.3,37.8c0.1-0.2,0.1-0.5,0.2-0.8l1.3,1.1c-0.3,0-0.6,0.1-0.8,0.2L108.3,37.8z
						 M108.5,36.5c0-0.3,0.1-0.6,0.1-0.8l4.2,3.6c0,0,0,0.1,0,0.1c0,0.2-0.1,0.4-0.1,0.6c0-0.3-0.1-0.6-0.3-0.9
						c-0.3-0.4-0.8-0.9-1.9-1L108.5,36.5z M108.6,35.1c0-0.4,0-0.7-0.1-1l4.7,4.1c-0.1,0.2-0.2,0.4-0.3,0.7L108.6,35.1z M108.2,33.3
						c0-0.1-0.1-0.1-0.1-0.2l-0.1-0.1l0,0l-0.3-0.3c0.3-0.1,0.5-0.1,0.8-0.2l5.2,4.6c-0.1,0.2-0.2,0.4-0.3,0.6L108.2,33.3z
						 M100.6,40.8c0,0,0-0.2,0.1-0.5l1.5,1.3c-0.2,0-0.5,0.1-0.7,0.1c-0.1,0-0.2,0-0.3,0l-0.7-0.6L100.6,40.8z M100.8,39.8
						c0-0.3,0.1-0.5,0.1-0.8l0.3,0.3c0,0,0,0,0,0c0,0.2,0,0.3,0,0.4c0,0.3,0,0.5,0.3,0.5c0.1,0,0.2-0.1,0.2-0.1l0,0
						c0.1,0,0.1-0.1,0.2-0.1l1.7,1.5c-0.3,0.1-0.5,0.2-0.8,0.2L100.8,39.8z M102.2,39.6c0.2-0.1,0.4-0.2,0.6-0.3l1.9,1.7
						c-0.2,0.1-0.4,0.2-0.6,0.2c-0.1,0-0.1,0-0.1,0L102.2,39.6z M105.2,40.8C105.2,40.8,105.2,40.8,105.2,40.8l-0.3-0.2
						C105,40.7,105.1,40.7,105.2,40.8z M105.2,40.2c0-0.2,0.2-0.4,0.5-0.5c0.6-0.2,1.9,0.1,2.4,0.4c0.2,0.1,0.3,0.4,0.2,0.6
						c0,0.1,0,0.3-0.7-0.1c-0.4-0.2-0.7-0.3-1.1-0.3c-0.2,0-0.5,0-0.8,0.1C105.4,40.5,105.2,40.4,105.2,40.2z M108.1,39.7
						c-0.1,0-0.2-0.1-0.3-0.1c0.1-0.1,0.2-0.1,0.3-0.2c0.4-0.4,0.9-0.8,2.1-0.8c0.8,0,1.4,0.3,1.7,0.8c0.4,0.6,0.3,1.4,0.1,1.7
						c-0.1,0.1-0.1,0.2-0.2,0.3c-1-1.5-2.3-1.8-2.9-1.8c-0.2,0-0.4,0-0.4,0L108.1,39.7z M109.2,40c0.6,0.1,1.6,0.4,2.4,1.7l0,0.1
						c0,0.1,0.1,0.2,0.2,0.2h0c0.1,0,0.2-0.1,0.3-0.2l0.1,0.1c0,0.1,0,0.1,0,0.1l0,0.3l0.4-0.1l0.3,0.3c-0.3,0.1-0.6,0.1-0.9,0.1
						L109.2,40z M115.2,38l-1.3-1.3l-0.1,0.1l-4.9-4.3c0.2,0,0.4,0,0.6,0c0.1,0,0.3,0,0.4,0l5.3,4.6l0.3,1.1L115.2,38z M113.1,33.4
						L113.1,33.4c0.2-0.1,0.4-0.2,0.6-0.3l3.7,3.3c-0.6-0.3-1.2-0.4-1.7-0.6L113.1,33.4z M114.2,32.9c0.2-0.1,0.5-0.2,0.7-0.2
						l3.2,2.8l-0.3,0.6L114.2,32.9z M115.5,32.5c0.3,0,0.6-0.1,0.9-0.1l2.3,2l-0.3,0.6L115.5,32.5z M108.2,26.4
						c0.2-0.3,0.4-0.6,0.5-1c0.2,0.3,0.5,0.5,0.9,0.6C109.1,26.1,108.7,26.3,108.2,26.4z M111.5,25.4c0.2-0.3,0.4-0.6,0.4-1
						c0.2,0.3,0.6,0.5,0.9,0.6C112.5,25.1,112,25.3,111.5,25.4z M117.5,24.9l-0.6-0.7c0.2,0,0.5-0.1,0.7-0.2
						c-0.1,0.2-0.1,0.4-0.1,0.7C117.5,24.7,117.5,24.8,117.5,24.9z M119.6,27.5l-0.9-1.2c0.2,0.1,0.5,0.1,0.7,0.1
						c0.2,0,0.3,0,0.4-0.1c-0.2,0.3-0.3,0.6-0.3,0.9C119.5,27.4,119.5,27.4,119.6,27.5z M121.6,30.2l-0.9-1.1
						c0.2,0.1,0.4,0.1,0.7,0.1c0.2,0,0.3,0,0.5-0.1c-0.2,0.3-0.3,0.6-0.3,1C121.6,30.1,121.6,30.2,121.6,30.2z M123.1,33.2
						c0,0.4,0.1,0.7,0.3,1c-0.1,0-0.2,0-0.2,0c-0.3,0-0.5,0.1-0.7,0.2L123.1,33.2z M123.3,32.3l-0.4-0.5c0.2,0.1,0.4,0.1,0.6,0.1
						c0,0,0,0,0,0C123.4,32.1,123.4,32.2,123.3,32.3z M121.4,25.9c0.8,0,1.5,0.7,1.5,1.5s-0.7,1.5-1.5,1.5c-0.8,0-1.5-0.7-1.5-1.5
						S120.6,25.9,121.4,25.9z M119.3,23.1c0.8,0,1.5,0.7,1.5,1.5c0,0.8-0.7,1.5-1.5,1.5s-1.5-0.7-1.5-1.5
						C117.9,23.8,118.5,23.1,119.3,23.1z M116.8,20.8c0.8,0,1.5,0.7,1.5,1.5c0,0.8-0.7,1.5-1.5,1.5c-0.8,0-1.5-0.7-1.5-1.5
						C115.3,21.4,115.9,20.8,116.8,20.8z M115.2,23.3c0.2,0.3,0.5,0.5,0.8,0.6c-0.3,0.1-0.7,0.2-1.2,0.4
						C115,24.1,115.2,23.7,115.2,23.3z M113.4,21.7c0.8,0,1.5,0.7,1.5,1.5c0,0.8-0.7,1.5-1.5,1.5c-0.8,0-1.5-0.7-1.5-1.5
						C111.9,22.3,112.6,21.7,113.4,21.7z M110.1,22.8c0.8,0,1.5,0.7,1.5,1.5c0,0.8-0.7,1.5-1.5,1.5c-0.8,0-1.5-0.7-1.5-1.5
						C108.7,23.4,109.3,22.8,110.1,22.8z M106.8,23.7c0.8,0,1.5,0.7,1.5,1.5c0,0.8-0.7,1.5-1.5,1.5c-0.8,0-1.5-0.7-1.5-1.5
						C105.3,24.4,106,23.7,106.8,23.7z M105.4,26.4c0.2,0.2,0.5,0.4,0.8,0.5c-0.3,0.1-0.7,0.2-1,0.3C105.3,27,105.4,26.7,105.4,26.4
						z M102.5,24.7c0.2-0.1,0.5-0.1,0.8-0.1c0.3,0,1.4,0.1,1.7,1c0,0,0,0,0,0.1c0,0.1,0.1,0.3,0.1,0.4c0,0.4-0.1,0.8-0.4,1.1
						c-0.4,0.4-1.2,0.7-1.9,0.5l-0.1,0l0,0c-1.9,0.6-3.1,4.8-3.4,6.1c-0.2,0-0.6-0.1-1.1-0.1c0-0.4,0.2-1.6,0.9-4.2
						C100.1,25.9,101.5,25,102.5,24.7z M100.8,25.3c-0.7,0.7-1.5,1.9-2.1,4c-0.7,2.6-0.9,3.8-0.9,4.3c-0.1,0-0.2,0-0.3,0
						c0.1-0.2,0.2-0.5,0.2-0.8c0-0.5-0.3-1-0.7-1.2c0.4-0.3,0.8-0.7,0.8-1.3c0-0.5-0.3-1-0.8-1.3c0.6-0.3,1-0.9,1-1.6
						c0-0.6-0.3-1.1-0.8-1.4c1.2-0.2,2.2-0.8,3-1.6L100.8,25.3z M98.1,25.4c0.4-0.4,0.7-1,0.7-1.7c0-0.9-0.5-1.6-1.2-2
						c1,0.1,2.1,0.2,3.4,0.6C100.6,23.7,99.5,24.9,98.1,25.4z M100.9,19.2c-0.5-0.2-1.5-0.5-2.5-0.5c0-0.5-0.1-1.8-0.1-2.2
						C99.5,16.9,100.5,17.9,100.9,19.2z M100.1,10.8c0.1,0.3,0.2,0.8,0.2,2c0,1.2-0.1,2-0.2,2.4l-2.4-1.4c0.2-0.3,0.3-0.6,0.3-1
						c0-0.3-0.1-0.6-0.3-0.9L100.1,10.8z M93.7,9.2c0.5-0.1,1.4-0.2,2.7-0.2c1.2,0,2.2,0.2,2.6,0.3l-1.6,2.1
						c-0.3-0.2-0.7-0.4-1.1-0.4c-0.4,0-0.8,0.2-1.1,0.4L93.7,9.2z M97.7,12.8c0,0.8-0.6,1.4-1.4,1.4c-0.8,0-1.4-0.6-1.4-1.4
						c0-0.8,0.6-1.4,1.4-1.4C97,11.4,97.7,12,97.7,12.8z M92.4,15.1c-0.1-0.3-0.2-1-0.2-2.4c0-1.2,0.1-1.8,0.1-2l2.4,1.2
						c-0.1,0.3-0.2,0.5-0.2,0.8c0,0.4,0.2,0.8,0.4,1.1L92.4,15.1z M95.4,14.3c0.3,0.2,0.6,0.3,0.9,0.3c0.4,0,0.7-0.1,1-0.3l1.2,1.8
						c-0.7-0.3-1.4-0.5-2.2-0.5c-0.8,0-1.5,0.2-2.1,0.4L95.4,14.3z M94.3,16.4c0.1,0.5,0.2,1.8,0.2,2.3c-0.8,0-2.1,0.3-2.7,0.4
						C92.2,18,93.1,17,94.3,16.4z M91.6,22.1c-0.1-0.4-0.2-0.8-0.2-1.2c0-0.4,0.1-0.8,0.2-1.2c0.5-0.1,2.1-0.5,3-0.5
						c0,0,0.1,0,0.1,0l0.1,0l0.1-0.1c0,0-0.1-2-0.2-2.8c0.5-0.2,1.1-0.3,1.7-0.3c0.3,0,0.5,0,0.7,0.1c0.4,0.1,0.7,0.2,0.8,0.3
						c0,1,0,2.7,0.4,2.7l0.1,0c1,0,2.3,0.5,2.6,0.6c0.1,0.1,0.2,0.3,0.2,0.6c0,0.1,0,0.3,0,0.4c0,0.1,0,0.2,0,0.3c0,0.1,0,0.2,0,0.4
						c0,0.1,0,0.3-0.1,0.5l-0.1-1.7l-0.4,0l0.1,1.8c-0.1,0-0.2,0-0.3-0.1l-0.1-1.6l-0.4,0l0.1,1.5c-0.1,0-0.2,0-0.3-0.1l-0.1-1.4
						l-0.4,0l0.1,1.3c-0.1,0-0.2,0-0.3,0l0-1.2l-0.4,0l0,1.1c-0.1,0-0.2,0-0.3,0l0-1l-0.4,0l0,0.9c-0.1,0-0.2,0-0.3,0l0-0.8l-0.4,0
						l0,0.8c-0.1,0-0.2,0-0.3,0l0-0.7l-0.4,0l0,0.7c-0.1,0-0.2,0-0.3,0l0-0.6l-0.4,0l0,0.7c-0.1,0-0.2,0-0.3,0l0-0.6l-0.4,0l0,0.6
						c-0.1,0-0.2,0-0.3,0l0-0.6l-0.4,0l0,0.6c-0.1,0-0.2,0-0.3,0l0-0.6l-0.4,0l0,0.7c-0.1,0-0.2,0-0.3,0.1l0-0.7l-0.4,0l0,0.7
						c-0.1,0-0.2,0-0.3,0.1l0-0.7l-0.4,0l0,0.8c-0.1,0-0.2,0-0.3,0.1l0-0.8l-0.4,0L91.6,22.1C91.7,22.1,91.7,22.1,91.6,22.1z
						 M91.7,22.5C93,22.2,94,22,95,21.8c-0.6,0.4-1,1.1-1,1.9c0,0.7,0.3,1.3,0.8,1.8C93.4,25,92.3,23.9,91.7,22.5z M92.5,24.5
						c0.8,0.8,1.8,1.4,2.9,1.6c-0.5,0.3-0.8,0.8-0.8,1.5c0,0.7,0.4,1.3,1.1,1.6c-0.4,0.3-0.7,0.7-0.7,1.2c0,0.5,0.3,1,0.7,1.2
						c-0.3,0.2-0.5,0.4-0.6,0.7c-0.1-0.7-0.4-1.6-0.7-3c-0.6-2.2-1.4-3.5-2.2-4.2L92.5,24.5z M89.6,24.5c0.3,0,0.5,0,0.8,0.1
						c1,0.3,2.4,1.2,3.4,4.8c0.8,2.7,0.9,3.8,0.9,4.2c-0.5,0-0.9,0.1-1.1,0.1c-0.3-1.3-1.5-5.5-3.4-6.1l-0.1,0l-0.1,0
						c-0.7,0.1-1.5-0.1-1.9-0.5c-0.3-0.3-0.4-0.7-0.4-1.1C87.9,24.7,89.2,24.5,89.6,24.5z M86.5,27c0.4-0.1,0.7-0.3,0.9-0.6
						c0,0.3,0.2,0.6,0.4,0.9C87.4,27.2,86.9,27.1,86.5,27z M86,23.7c0.8,0,1.5,0.7,1.5,1.5c0,0.8-0.7,1.5-1.5,1.5
						c-0.8,0-1.5-0.7-1.5-1.5C84.5,24.4,85.2,23.7,86,23.7z M84.7,26.5c-0.5-0.1-1-0.3-1.6-0.4c0.4-0.1,0.8-0.4,1-0.7
						C84.2,25.8,84.4,26.2,84.7,26.5z M82.7,22.8c0.8,0,1.5,0.7,1.5,1.5c0,0.8-0.7,1.5-1.5,1.5c-0.8,0-1.5-0.7-1.5-1.5
						C81.2,23.4,81.8,22.8,82.7,22.8z M79.4,21.8c0.8,0,1.5,0.7,1.5,1.5c0,0.8-0.7,1.5-1.5,1.5c-0.8,0-1.5-0.7-1.5-1.5
						C77.9,22.4,78.6,21.8,79.4,21.8z M78,24.5c-0.5-0.2-0.9-0.3-1.1-0.4c0.3-0.1,0.5-0.3,0.7-0.6C77.6,23.9,77.8,24.2,78,24.5z
						 M76,21c0.8,0,1.5,0.7,1.5,1.5c0,0.8-0.7,1.5-1.5,1.5c-0.8,0-1.5-0.7-1.5-1.5C74.6,21.6,75.2,21,76,21z M73.5,23.4
						c0.8,0,1.5,0.7,1.5,1.5c0,0.8-0.7,1.5-1.5,1.5c-0.8,0-1.5-0.7-1.5-1.5C72,24.1,72.7,23.4,73.5,23.4z M71.4,26
						c0.8,0,1.5,0.7,1.5,1.5c0,0.8-0.7,1.5-1.5,1.5c-0.8,0-1.5-0.7-1.5-1.5C70,26.7,70.6,26,71.4,26z M67.8,30.1
						c0-0.8,0.7-1.5,1.5-1.5c0.8,0,1.5,0.7,1.5,1.5c0,0.8-0.7,1.5-1.5,1.5C68.5,31.5,67.8,30.9,67.8,30.1z M68.2,34.7
						c-0.8,0-1.5-0.7-1.5-1.5c0-0.8,0.7-1.5,1.5-1.5c0.8,0,1.5,0.7,1.5,1.5C69.6,34.1,69,34.7,68.2,34.7z M69.7,37.7
						c-0.8,0-1.5-0.7-1.5-1.5c0-0.8,0.7-1.5,1.5-1.5c0.8,0,1.5,0.7,1.5,1.5C71.2,37,70.6,37.7,69.7,37.7z M71.4,40.7
						c-0.8,0-1.5-0.7-1.5-1.5c0-0.8,0.7-1.5,1.5-1.5c0.8,0,1.5,0.7,1.5,1.5C72.9,40,72.2,40.7,71.4,40.7z M74.5,41L73,38
						c0.2-0.2,0.8-0.7,1.6-1c1.1-0.4,2.3-0.5,2.8-0.5l-0.8,3c-0.1,0-0.2,0-0.3,0c-0.3,0-0.6,0.1-0.9,0.3C75,39.9,74.7,40.4,74.5,41z
						 M76.1,44c0.1,0.1,0.2,0.1,0.3,0.2c0.2,0.2,1.1,0.5,2.2,0.8l-0.6,0.2c-0.4,0.1-0.8,0.1-1.1,0.2l0,0L76.1,44z M76.5,50.1
						l1.2-0.3l-0.1-0.4l-1,0.3l1.9-2.1l-0.3,1.6l0.4,0.1l0.4-2c0,0,0,0,0,0l2.8,1.4l-2.7,0.5l0.1,0.4l2.7-0.5l-2.2,2.7l-1-1.9
						L78.3,50l0.8,1.6L76.5,50.1z M77.7,47.3c0.1,0,0.1,0,0.2,0l0.1,0.2l-0.2,0.2L77.7,47.3z M80,47c0.1,0,0.1,0,0.2,0l0.2,0.4
						l-0.3-0.1L80,47z M80.7,46.9c0.1,0,0.1,0,0.2,0l0.3,0.9l-0.3-0.1L80.7,46.9z M86.8,47.5c0.1,0,0.2,0,0.4,0
						c0.9,0,1.7,0.3,2.1,0.6c-1.8,1-3.4,0.2-3.5,0.1l-0.2,0.4c0.1,0,0.8,0.4,1.8,0.4c0.6,0,1.3-0.2,2.1-0.6c0,0,0,0.1,0,0.1
						c0,0.3-0.2,0.6-0.6,0.9c-0.5,0.3-1.1,0.5-1.8,0.5c-1.4,0.1-2.6-0.4-2.7-1.1c0-0.2,0.1-0.4,0.2-0.6C85,48,85.9,47.6,86.8,47.5z
						 M85,46.3c0.3,0,0.6-0.1,1-0.1l0.2,1.1c-0.3,0.1-0.6,0.1-0.9,0.2L85,46.3z M86.4,46.1c0.4-0.1,0.8-0.1,1.2-0.1l0.2,1.2
						c-0.3,0-0.6,0-0.9,0c-0.1,0-0.1,0-0.2,0L86.4,46.1z M88,45.9c0.4,0,0.8-0.1,1.1-0.1l0.2,1.9c-0.3-0.2-0.7-0.4-1.1-0.5L88,45.9z
						 M89.8,48.2l-0.3-2.5c0.4,0,0.8-0.1,1.2-0.1l0.3,4.5c-0.3,0-0.7,0-1,0.1L89.9,49c0-0.1,0-0.2,0-0.4
						C89.9,48.5,89.9,48.3,89.8,48.2z M89.6,50.1c-0.3,0-0.7,0-1,0.1l0-0.1c0.2-0.1,0.3-0.1,0.5-0.2c0.2-0.1,0.3-0.2,0.4-0.4
						L89.6,50.1z M85.6,50.5c-0.2,0-0.4,0.1-0.7,0.1l-0.1-0.5c0.2,0.1,0.5,0.2,0.8,0.3L85.6,50.5z M84.3,48.1l-0.5-1.7
						c0.3,0,0.5-0.1,0.8-0.1l0.3,1.3C84.7,47.8,84.4,48,84.3,48.1z M84,48.7c0,0.1-0.1,0.2,0,0.3c0,0.2,0.1,0.4,0.3,0.6l0.3,0.9
						c-0.1,0-0.3,0-0.4,0.1l-1.2-4.1c0.2,0,0.4-0.1,0.5-0.1L84,48.7z M83.7,50.7c-0.1,0-0.3,0-0.4,0.1l-0.6-2l0.2-0.2l-0.3-0.1
						l-0.6-1.8c0.2,0,0.4-0.1,0.5-0.1L83.7,50.7z M81.7,49.8l0.1-0.1l0.4,1.3c0,0-0.1,0-0.1,0L81.7,49.8z M81.7,51.1
						c0,0-0.1,0-0.1,0l-0.3-0.8l0.1-0.1L81.7,51.1z M82.1,49.3l0.1-0.2l0.5,1.7c0,0-0.1,0-0.1,0L82.1,49.3z M82,48.2l-0.2-0.1
						l-0.4-1.3c0.1,0,0.1,0,0.2,0L82,48.2z M81.2,51.2c0,0-0.1,0-0.1,0l-0.2-0.4l0.1-0.1L81.2,51.2z M80.6,51.4c0,0-0.1,0-0.1,0
						l0-0.1l0.1-0.1L80.6,51.4z M113.5,52.7c0,0.6-0.1,1-0.9,1.2c-2.3,0.8-8,1.2-16.4,1.2c-6.5,0-13.7-0.1-16.3-1.1
						c-0.6-0.2-1.2-0.6-1-1.3c0.4-1.2,6.6-2.4,17.3-2.4C106.9,50.3,113.4,51.6,113.5,52.7z M96.6,47v-1.7c0,0,0.1,0,0.1,0l3.1,2
						h-2.4v0.4h2.4l-3.2,2.2v-1.8h-0.4v1.8L93,47.7h2.4v-0.4H93l3-2c0,0,0.1,0,0.1,0V47H96.6z M97.4,45.3c1.4,0,2.7,0.1,4.1,0.2
						l-0.3,4.6c-1.3-0.1-2.6-0.1-3.9-0.1l3.5-2.4L97.4,45.3z M91.9,47.5l3.5,2.4c-1.3,0-2.7,0-4,0.1l-0.3-4.5
						c1.5-0.1,2.8-0.2,4.2-0.3L91.9,47.5z M104.2,47.6c0.1,0,0.2,0,0.4,0c0.9,0.1,1.8,0.4,2.2,0.8c-1.9,0.7-3.4-0.3-3.5-0.4
						l-0.3,0.3c0.1,0,1,0.8,2.4,0.8c0.5,0,1-0.1,1.6-0.3c0,0.1,0.1,0.2,0.1,0.3c0,0.7-1.3,1.2-2.7,1.1c-1.4-0.1-2.5-0.8-2.5-1.5
						C102,48.1,103,47.6,104.2,47.6z M103.4,47.2l0.2-1.6c0.4,0,0.7,0.1,1.1,0.1l-0.2,1.4C104.1,47.2,103.7,47.2,103.4,47.2z
						 M104.9,47.2l0.2-1.4c0.4,0,0.8,0.1,1.2,0.1l-0.3,1.5C105.6,47.3,105.3,47.3,104.9,47.2z M110.8,49.7l0.2,0.2l-0.4,1.1
						c-0.1,0-0.1,0-0.2,0L110.8,49.7z M110,50.9c-0.1,0-0.2,0-0.2-0.1l0.5-1.7l0.2,0.2L110,50.9z M110.1,48.5l-0.2,0.1l0.1,0.1
						l-0.6,2c-0.1,0-0.3,0-0.4-0.1l1.2-4.2c0.2,0,0.3,0,0.5,0.1L110.1,48.5z M111.1,46.6c0.1,0,0.2,0,0.3,0l-0.5,1.4l-0.4,0.2
						L111.1,46.6z M108.6,50.6c-0.1,0-0.3,0-0.4-0.1l1.1-4.2c0.2,0,0.4,0.1,0.5,0.1L108.6,50.6z M107.7,50.5c-0.2,0-0.4-0.1-0.7-0.1
						l0.2-0.8c0.1-0.2,0.3-0.4,0.3-0.6c0-0.1,0-0.2,0-0.4l0.6-2.5c0.3,0,0.5,0.1,0.8,0.1L107.7,50.5z M107.2,48.2
						c-0.2-0.2-0.5-0.4-0.8-0.6l0.3-1.6c0.3,0,0.6,0.1,1,0.1L107.2,48.2z M106.7,50.1l-0.1,0.3c-0.2,0-0.3,0-0.5-0.1
						C106.4,50.3,106.5,50.2,106.7,50.1z M102.9,47.3c-0.5,0.2-0.9,0.4-1.2,0.7l0.2-2.5c0.4,0,0.8,0.1,1.2,0.1L102.9,47.3z
						 M102.6,50.1L102.6,50.1c-0.3,0-0.7,0-1,0l0.1-0.8C101.9,49.6,102.2,49.8,102.6,50.1z M111,51.1l0.3-0.8l0.1,0.2l-0.3,0.7
						C111.1,51.1,111.1,51.1,111,51.1z M111.6,51.3l0.2-0.4l0.1,0.2l-0.1,0.3C111.7,51.3,111.6,51.3,111.6,51.3z M112.2,51.4
						L112.2,51.4l0.1,0l0,0C112.2,51.4,112.2,51.4,112.2,51.4z M116,49.7l-1-0.3l-0.1,0.4l1.2,0.3l-2.6,1.5l0.8-1.6l-0.4-0.2l-1,1.9
						l-2.2-2.7l2.7,0.5l0.1-0.4l-2.7-0.5l2.8-1.5l0.4,2.1l0.4-0.1l-0.3-1.6L116,49.7z M111.5,47.8l0.4-1.1c0.1,0,0.2,0,0.3,0
						l-0.3,0.9L111.5,47.8z M112.3,47.4l0.2-0.5c0.1,0,0.2,0,0.2,0l-0.1,0.3L112.3,47.4z M114.4,47.2L114.4,47.2
						C114.5,47.1,114.5,47.1,114.4,47.2L114.4,47.2L114.4,47.2z M115.8,46.4c-0.1,0.3-0.4,0.6-0.8,0.4l-0.1,0
						c-7.7-1.2-12.8-1.9-18-1.9c-5.1,0-10.7,0.7-19.1,2c-0.5,0.1-1.1-0.1-1.2-0.5c-0.1-0.2,0-0.5,0.3-0.7c1.1-0.2,2.2-0.4,3.3-0.6
						c0.1,0,0.2,0,0.3,0c0.8,0,1.8-0.1,2.9-0.5c2.2-0.3,4.3-0.5,6.4-0.7c0.4,0,0.7,0.1,1.1,0.1c0.7,0,1.5-0.1,2.2-0.3
						c1.3-0.1,2.7-0.1,4-0.1c0.7,0,1.5,0,2.2,0.1c0.8,0.2,1.6,0.3,2.4,0.3c0.5,0,1-0.1,1.6-0.1c2,0.1,4.1,0.4,6.2,0.6
						c0.8,0.3,1.7,0.5,2.6,0.5c0.1,0,0.2,0,0.4,0c1,0.2,2,0.4,3.1,0.6C115.9,45.9,115.9,46.3,115.8,46.4z M84.6,44.1
						c0.1-0.1,0.3-0.2,0.4-0.3l0.3,0.2C85,44.1,84.8,44.1,84.6,44.1z M86.7,43.9c-0.3,0-0.6,0.1-0.9,0.1l-0.5-0.4
						c0.2-0.1,0.3-0.3,0.5-0.4L86.7,43.9z M86.2,42.8c0,0,0.1-0.1,0.1-0.1c0.5,0.3,1.1,0.6,1.6,0.8l0.3,0.2c-0.3,0-0.6,0.1-0.9,0.1
						L86.2,42.8z M95.9,43.3c-0.3,0-0.7,0-1,0l-0.1-0.1c0.2-0.1,0.4-0.2,0.7-0.3L95.9,43.3z M95.8,42.6c0.2-0.1,0.4-0.2,0.6-0.4
						c0.1,0,0.1,0.1,0.2,0.1l0.9,0.8c-0.1,0-0.3,0-0.4,0c-0.2,0-0.4,0-0.6,0L95.8,42.6z M106.3,43.8c-0.4,0-0.8-0.1-1.2-0.1
						l-0.2-0.2c0.2-0.1,0.5-0.2,0.7-0.3L106.3,43.8z M106,43c0.1-0.1,0.2-0.1,0.3-0.2c0.6,0.5,1.2,0.9,1.8,1.2
						c-0.4,0-0.8-0.1-1.1-0.1L106,43z M115.6,45.1l-1-0.1c-0.3-0.1-0.6-0.1-0.9-0.2c1.2-0.3,2.1-0.8,2.4-1l0.1-0.1
						c0.1-0.1,0.2-0.2,0.4-0.2L115.6,45.1z M118.1,41.1c-0.2,0.8-0.9,1.6-2.1,2.3l-0.1,0.1c-0.5,0.3-1.9,1.1-3.8,1.1
						c-1.8,0-3.7-0.7-5.5-2.2l-0.1-0.1l-0.1,0.1c-1.3,0.8-2.9,1.3-4.6,1.3c-2,0-4-0.7-5.2-1.7l-0.1-0.1l-0.1,0.1
						c-1.6,1.2-3.4,1.8-5.3,1.8c-1.6,0-3.2-0.5-4.6-1.3l-0.1-0.1l-0.1,0.1c-1.4,1.6-3.3,2.5-5.6,2.5c-2.1,0-3.7-0.7-3.9-0.9
						c-0.2-0.1-0.3-0.2-0.5-0.3c-0.5-0.3-0.9-0.5-1.2-1.3c-0.3-0.8,0.1-1.8,0.7-2.2c0.2-0.1,0.5-0.2,0.7-0.2c0.4,0,0.7,0.2,1,0.6
						c0.6,1,0.2,1.4,0.2,1.5l-0.2,0.2l0.2,0.1c0.1,0,1.3,0.9,3.1,0.9c0.4,0,0.8-0.1,1.3-0.2c1.3-0.3,2.3-1.1,3.1-1.8
						c0.1,0,0.1,0,0.2,0c0.7-0.3,1.1-0.4,1.6-0.3c0.2,0,0.3,0,0.4,0.1c1.2,0.6,2.9,1.3,3.9,1.3c2.5-0.2,4.3-2,4.4-2.1l0.1-0.1
						l-0.1-0.1c0,0-0.8-1.6-0.3-2.6c0.2-0.4,0.6-0.7,1.2-0.7c0.5,0,0.9,0.2,1.1,0.6c0.6,0.9-0.2,2.7-0.2,2.7l0,0.1l0,0.1
						c0,0.1,1.1,2.2,4.2,2.2c0.9,0,1.8-0.2,2.8-0.5c0.8-0.3,1.3-0.6,1.7-0.8c0.6-0.1,0.9,0,1.3,0.2c1.4,1.3,2.9,1.9,4.5,1.9
						c2,0,3.5-1.1,3.5-1.6c0-0.1-0.1-0.2-0.1-0.2c-0.1-0.1-0.3-0.3-0.1-1c0.2-0.8,0.8-1,1.4-1c0.2,0,0.3,0,0.5,0
						c0.3,0.1,0.6,0.3,0.8,0.6C118,40.2,118.2,40.7,118.1,41.1z M118.4,40.2c-0.1-0.2-0.1-0.4-0.3-0.7c-0.3-0.4-0.6-0.7-1-0.8
						c-0.2,0-0.4-0.1-0.6-0.1c-0.2,0-0.3,0-0.5,0.1l-0.7-2.8c0.5,0.1,1.4,0.4,2.3,0.8c1,0.4,1.7,1,2,1.3L118.4,40.2z M121.4,40.5
						c-0.8,0-1.5-0.7-1.5-1.5c0-0.8,0.7-1.5,1.5-1.5c0.8,0,1.5,0.7,1.5,1.5C122.8,39.8,122.2,40.5,121.4,40.5z M123.1,37.5
						c-0.8,0-1.5-0.7-1.5-1.5c0-0.8,0.7-1.5,1.5-1.5c0.8,0,1.5,0.7,1.5,1.5C124.6,36.9,124,37.5,123.1,37.5z M123.5,33.2
						c0-0.8,0.7-1.5,1.5-1.5c0.8,0,1.5,0.7,1.5,1.5c0,0.8-0.7,1.5-1.5,1.5C124.1,34.6,123.5,34,123.5,33.2z M125.8,33.1
						c0-0.3-0.2-0.5-0.4-0.7l-0.2,0.4c0.1,0.1,0.2,0.2,0.3,0.4c0,0.1,0,0.3-0.1,0.4c-0.2,0.2-0.5,0.2-0.7,0c-0.2-0.2-0.1-0.5,0-0.6
						l-0.3-0.3c-0.3,0.4-0.3,0.9,0.1,1.2c0.2,0.1,0.4,0.2,0.6,0.2c0.3,0,0.5-0.1,0.7-0.3C125.7,33.6,125.8,33.3,125.8,33.1z
						 M110.1,25.2c0.3,0,0.5-0.1,0.7-0.3c0.3-0.4,0.2-0.9-0.2-1.3l-0.3,0.3c0.2,0.2,0.3,0.5,0.1,0.7c-0.2,0.2-0.5,0.2-0.7,0
						c-0.1-0.1-0.1-0.1-0.1-0.2c0-0.1,0-0.3,0.1-0.4l-0.3-0.3c-0.2,0.2-0.3,0.5-0.2,0.7c0,0.2,0.1,0.4,0.3,0.5
						C109.7,25.1,109.9,25.2,110.1,25.2z M116.8,23C116.8,23,116.9,23,116.8,23c0.3,0,0.5-0.1,0.7-0.3c0.3-0.4,0.2-0.9-0.2-1.3
						l-0.3,0.3c0.2,0.2,0.3,0.5,0.1,0.7c-0.1,0.1-0.2,0.2-0.3,0.2c-0.1,0-0.3,0-0.4-0.1c-0.1-0.1-0.1-0.1-0.1-0.2
						c0-0.1,0-0.3,0.1-0.4l-0.3-0.3c-0.2,0.2-0.3,0.5-0.2,0.7c0,0.2,0.1,0.4,0.3,0.5C116.4,23,116.6,23,116.8,23z M123.5,35.3
						l-0.2,0.4c0.1,0.1,0.2,0.2,0.3,0.4c0,0.1,0,0.3-0.1,0.4c-0.2,0.2-0.5,0.2-0.7,0c-0.2-0.2-0.2-0.4,0-0.6l-0.3-0.3
						c-0.3,0.4-0.3,0.9,0.1,1.2c0.2,0.1,0.4,0.2,0.6,0.2c0.3,0,0.5-0.1,0.7-0.3c0.1-0.2,0.2-0.4,0.2-0.7
						C123.9,35.7,123.7,35.5,123.5,35.3z M121.2,28.2c0.1,0,0.1,0,0.2,0c0.2,0,0.3,0,0.4-0.1c0.2-0.1,0.3-0.3,0.4-0.5
						c0.1-0.2,0-0.5-0.1-0.7l-0.4,0.2c0.1,0.1,0.1,0.3,0.1,0.4c0,0.1-0.1,0.2-0.2,0.3c-0.1,0.1-0.2,0.1-0.3,0
						c-0.1,0-0.2-0.1-0.3-0.2c-0.1-0.1-0.1-0.2,0-0.3c0-0.1,0.1-0.2,0.3-0.3l-0.2-0.4c-0.2,0.1-0.4,0.3-0.4,0.6c0,0.2,0,0.4,0.1,0.6
						C120.7,28,120.9,28.1,121.2,28.2z M71,28.3c0.1,0.1,0.3,0.1,0.4,0.1c0.1,0,0.1,0,0.2,0c0.2-0.1,0.4-0.2,0.6-0.4
						c0.2-0.4,0.1-0.9-0.4-1.2l-0.2,0.4c0.2,0.1,0.4,0.3,0.2,0.6c-0.1,0.1-0.2,0.2-0.3,0.2c-0.1,0-0.2,0-0.3,0
						c-0.1-0.1-0.2-0.2-0.2-0.3c0-0.1,0-0.3,0.1-0.4L70.8,27c-0.1,0.2-0.2,0.5-0.1,0.7C70.7,27.9,70.8,28.1,71,28.3z M71.7,38.9
						c0.1,0.2,0.2,0.4,0,0.6c-0.2,0.2-0.5,0.2-0.7,0c-0.1-0.1-0.1-0.2-0.1-0.3c0-0.2,0.1-0.3,0.3-0.4l-0.2-0.4
						c-0.2,0.1-0.4,0.4-0.5,0.7c0,0.3,0,0.5,0.2,0.7c0.2,0.2,0.4,0.3,0.7,0.3c0.2,0,0.4-0.1,0.6-0.2c0.4-0.3,0.4-0.8,0.1-1.2
						L71.7,38.9z M86,26.1c0.2,0,0.4-0.1,0.6-0.2c0.2-0.1,0.3-0.3,0.3-0.5c0-0.2-0.1-0.5-0.2-0.7l-0.3,0.3c0.1,0.1,0.1,0.3,0.1,0.4
						c0,0.1-0.1,0.2-0.1,0.2c-0.2,0.2-0.5,0.2-0.7,0c-0.2-0.2-0.1-0.5,0.1-0.7l-0.3-0.3c-0.4,0.3-0.5,0.9-0.2,1.3
						C85.5,26,85.8,26.1,86,26.1z M96.2,51.7c-6.2,0-11.9,0.5-15.1,1.3l0.1,0.4c0.1,0,0.1,0,0.2,0l0,0c0.1,0,0.3,0.1,0.4,0.1l0-0.2
						c0.1,0,0.3-0.1,0.4-0.1l0,0.3c0.1,0,0.3,0,0.4,0.1l0-0.5c0.1,0,0.3,0,0.4-0.1l0,0.6c0.1,0,0.3,0,0.4,0.1l0-0.7
						c0.1,0,0.3,0,0.4-0.1l0,0.8c0.1,0,0.3,0,0.4,0l0-0.9c0.1,0,0.3,0,0.4-0.1l0,1c0.1,0,0.3,0,0.4,0l0-1.1c0.1,0,0.3,0,0.4-0.1
						l0.1,1.1c0.1,0,0.3,0,0.4,0l-0.1-1.2c0.1,0,0.3,0,0.4,0l0.1,1.3c0.1,0,0.3,0,0.4,0l-0.1-1.3c0.1,0,0.3,0,0.4,0l0.1,1.4
						c0.1,0,0.3,0,0.4,0l-0.1-1.5c0.1,0,0.3,0,0.4,0l0.1,1.5c0.1,0,0.3,0,0.4,0l-0.1-1.5c0.1,0,0.3,0,0.4,0l0.1,1.6
						c0.1,0,0.3,0,0.4,0l-0.1-1.6c0.1,0,0.3,0,0.4,0l0.1,1.7c0.1,0,0.3,0,0.4,0L90,52.2c0.1,0,0.3,0,0.4,0l0.1,1.7
						c0.1,0,0.3,0,0.4,0l-0.1-1.8c0.1,0,0.3,0,0.4,0l0.1,1.8c0.1,0,0.3,0,0.4,0l-0.1-1.8c0.2,0,0.5,0,0.7,0l0.1,1.8
						c0.1,0,0.3,0,0.4,0l-0.1-1.9c1.1,0,2.3-0.1,3.5-0.1c1.3,0,2.7,0,4,0.1l0.1,1.8c0.1,0,0.3,0,0.4,0l-0.1-1.8c0.2,0,0.4,0,0.6,0
						l0.1,1.7c0.1,0,0.3,0,0.4,0l-0.1-1.7c0.1,0,0.3,0,0.4,0l0.1,1.7c0.1,0,0.3,0,0.4,0l-0.1-1.6c0.1,0,0.3,0,0.4,0l0.1,1.6
						c0.1,0,0.3,0,0.4,0l-0.1-1.6c0.1,0,0.3,0,0.4,0l0.1,1.5c0.1,0,0.3,0,0.4,0l-0.1-1.5c0.1,0,0.3,0,0.4,0l0.1,1.4
						c0.1,0,0.3,0,0.4,0l-0.1-1.4c0.1,0,0.3,0,0.4,0l0.1,1.3c0.1,0,0.3,0,0.4,0l-0.1-1.2c0.1,0,0.3,0,0.4,0l0.1,1.2
						c0.1,0,0.3,0,0.4,0l0-1.1c0.1,0,0.3,0,0.4,0l0,1c0.1,0,0.3,0,0.4,0l0-0.9c0.1,0,0.3,0,0.4,0.1l0,0.8c0.1,0,0.3,0,0.4,0l0-0.7
						c0.1,0,0.3,0,0.4,0.1l0,0.6c0.1,0,0.3,0,0.4-0.1l0-0.5c0.1,0,0.3,0,0.4,0.1l0,0.4c0.1,0,0.3,0,0.4-0.1l0-0.3
						c0.1,0,0.3,0.1,0.4,0.1l0,0.1c0.1,0,0.2,0,0.3-0.1c0.2,0,0.4,0.1,0.6,0.1l0.1-0.3c0,0,0,0,0,0c0,0,0,0,0,0l0-0.1
						C108.2,52.1,102.4,51.7,96.2,51.7z M68.5,33c0.2,0.2,0.2,0.5,0,0.6c-0.2,0.2-0.5,0.2-0.7,0c-0.1-0.1-0.1-0.2-0.1-0.4
						c0-0.2,0.1-0.3,0.3-0.4l-0.2-0.4c-0.2,0.1-0.4,0.4-0.4,0.7c0,0.3,0,0.5,0.2,0.7c0.2,0.2,0.4,0.3,0.7,0.3c0.2,0,0.4-0.1,0.6-0.2
						c0.4-0.3,0.4-0.8,0.1-1.2L68.5,33z M96.1,31.1c0.1,0,0.2,0,0.3,0c0.1,0,0.2,0,0.4-0.1c0.2-0.1,0.3-0.2,0.4-0.4
						c0.1-0.4-0.1-0.9-0.5-1L96.4,30c0.2,0.1,0.3,0.3,0.3,0.5c0,0.1-0.1,0.2-0.2,0.2c-0.1,0-0.2,0.1-0.3,0C96,30.7,96,30.4,96,30.3
						l-0.4-0.1C95.5,30.6,95.7,31,96.1,31.1z M96.3,28.5c0.2,0,0.4-0.1,0.6-0.2c0.4-0.3,0.4-0.8,0.1-1.2l-0.3,0.3
						c0.1,0.2,0.2,0.4,0,0.6c-0.2,0.2-0.5,0.2-0.7,0c-0.1-0.1-0.1-0.2-0.1-0.3c0-0.1,0.1-0.3,0.2-0.4l-0.3-0.3
						c-0.2,0.2-0.3,0.4-0.4,0.6c0,0.2,0,0.5,0.2,0.6C95.8,28.4,96,28.5,96.3,28.5z M70.1,36c0.1,0.1,0.1,0.3,0.1,0.4
						c0,0.1-0.1,0.2-0.1,0.2c-0.2,0.2-0.5,0.2-0.7,0c-0.1-0.1-0.1-0.2-0.1-0.4c0-0.2,0.1-0.3,0.3-0.4l-0.2-0.4
						c-0.2,0.1-0.4,0.4-0.4,0.7c0,0.3,0,0.5,0.2,0.7c0.2,0.2,0.4,0.3,0.7,0.3c0.2,0,0.4-0.1,0.6-0.2c0.2-0.1,0.3-0.3,0.3-0.5
						c0-0.2-0.1-0.5-0.2-0.7L70.1,36z M68.8,30.8c0.1,0.1,0.3,0.1,0.4,0.1c0.1,0,0.1,0,0.2,0c0.2-0.1,0.4-0.2,0.6-0.4
						c0.1-0.2,0.1-0.4,0.1-0.6c-0.1-0.2-0.2-0.4-0.4-0.6l-0.2,0.4c0.1,0.1,0.2,0.2,0.3,0.3c0,0.1,0,0.2,0,0.3
						c-0.1,0.1-0.2,0.2-0.3,0.2c-0.1,0-0.2,0-0.3-0.1c-0.1-0.1-0.2-0.2-0.2-0.3c0-0.1,0-0.3,0.1-0.4l-0.4-0.2
						c-0.1,0.2-0.2,0.5-0.1,0.7C68.5,30.5,68.7,30.7,68.8,30.8z M82.6,25.1C82.6,25.1,82.6,25.1,82.6,25.1c0.3,0,0.5-0.1,0.7-0.2
						c0.4-0.3,0.4-0.8,0.1-1.2L83,24c0.2,0.2,0.2,0.5,0,0.6c-0.1,0.1-0.2,0.1-0.4,0.1c-0.1,0-0.2-0.1-0.3-0.2
						c-0.1-0.1-0.1-0.2-0.1-0.3c0-0.1,0.1-0.3,0.2-0.3l-0.3-0.3c-0.2,0.2-0.3,0.4-0.3,0.6c0,0.2,0,0.5,0.2,0.7
						C82.1,25,82.3,25.1,82.6,25.1z M75.9,23.2C75.9,23.2,75.9,23.2,75.9,23.2c0.3,0,0.5-0.1,0.7-0.2c0.2-0.2,0.3-0.4,0.3-0.6
						c0-0.2-0.1-0.4-0.2-0.6l-0.3,0.3c0.1,0.1,0.1,0.2,0.1,0.3c0,0.1,0,0.2-0.1,0.3c-0.1,0.1-0.2,0.1-0.4,0.1
						c-0.1,0-0.2-0.1-0.3-0.2c-0.1-0.1-0.1-0.2-0.1-0.3c0-0.1,0.1-0.3,0.2-0.4l-0.3-0.3c-0.2,0.2-0.3,0.4-0.4,0.6
						c0,0.2,0,0.5,0.2,0.6C75.4,23.1,75.6,23.2,75.9,23.2z M78.9,24c0.1,0.1,0.3,0.1,0.5,0.1c0.1,0,0.1,0,0.2,0
						c0.2,0,0.4-0.2,0.5-0.3c0.1-0.2,0.2-0.5,0.1-0.7l-0.4,0.1c0,0.2,0,0.3,0,0.4c-0.1,0.1-0.1,0.1-0.2,0.2c-0.1,0-0.3,0-0.4-0.1
						c-0.1-0.1-0.2-0.2-0.2-0.3c-0.1-0.2,0.1-0.5,0.4-0.6l-0.1-0.4c-0.5,0.1-0.8,0.6-0.7,1.1C78.6,23.6,78.7,23.8,78.9,24z
						 M96.9,23.1c0.2,0.2,0.3,0.4,0.4,0.6c0,0.2,0,0.5-0.2,0.6c-0.3,0.4-0.8,0.4-1.2,0.1c-0.2-0.2-0.3-0.4-0.2-0.7l-0.4-0.1
						c-0.1,0.4,0,0.8,0.4,1.1c0.2,0.2,0.5,0.3,0.8,0.3c0.4,0,0.7-0.2,1-0.5c0.2-0.3,0.3-0.6,0.2-0.9c-0.1-0.3-0.2-0.6-0.5-0.9
						L96.9,23.1z M73.5,25.7C73.5,25.7,73.5,25.7,73.5,25.7c0.3,0,0.5-0.1,0.7-0.3c0.1-0.2,0.2-0.4,0.2-0.6c0-0.2-0.1-0.5-0.3-0.6
						l-0.3,0.3c0.1,0.1,0.2,0.2,0.2,0.4c0,0.1,0,0.2-0.1,0.3c-0.1,0.1-0.2,0.2-0.4,0.2c-0.1,0-0.2,0-0.3-0.1
						C73.1,25.1,73,25,73,24.9c0-0.1,0-0.3,0.1-0.4l-0.3-0.3c-0.2,0.2-0.3,0.5-0.2,0.7c0,0.2,0.1,0.4,0.3,0.6
						C73,25.7,73.2,25.7,73.5,25.7z"/>
				</g>
			</g>
		</g>
	</g>
</g>
</svg>
